<?xml version="1.0" encoding="utf-8" standalone="no"?>
<!DOCTYPE svg PUBLIC "-//W3C//DTD SVG 1.1//EN"
  "http://www.w3.org/Graphics/SVG/1.1/DTD/svg11.dtd">
<!-- Created with matplotlib (http://matplotlib.org/) -->
<svg height="288pt" version="1.1" viewBox="0 0 432 288" width="432pt" xmlns="http://www.w3.org/2000/svg" xmlns:xlink="http://www.w3.org/1999/xlink">
 <defs>
  <style type="text/css">
*{stroke-linecap:butt;stroke-linejoin:round;stroke-miterlimit:100000;}
  </style>
 </defs>
 <g id="figure_1">
  <g id="patch_1">
   <path d="M 0 288 
L 432 288 
L 432 0 
L 0 0 
z
" style="fill:#ffffff;"/>
  </g>
  <g id="axes_1">
   <g id="patch_2">
    <path d="M 54 252 
L 388.8 252 
L 388.8 28.8 
L 54 28.8 
z
" style="fill:#ffffff;"/>
   </g>
   <g id="line2d_1">
    <path clip-path="url(#p4e19fb9a42)" d="M 54 60.685714 
L 76.32 60.685714 
L 78.552 65.893443 
L 83.016 80.259528 
L 87.48 93.204811 
L 91.944 104.869808 
L 96.408 115.381141 
L 100.872 124.852906 
L 105.336 133.387915 
L 109.8 141.078815 
L 114.264 148.009086 
L 118.728 154.253956 
L 123.192 159.88121 
L 127.656 164.951929 
L 132.12 169.521156 
L 136.584 173.638488 
L 141.048 177.348616 
L 145.512 180.691814 
L 149.976 183.704371 
L 154.44 186.418986 
L 158.904 188.865127 
L 163.368 191.069345 
L 167.832 193.055566 
L 172.296 194.845351 
L 176.76 196.458127 
L 183.456 198.583214 
L 190.152 200.400974 
L 196.848 201.955851 
L 203.544 203.285864 
L 210.24 204.423532 
L 219.168 205.688706 
L 228.096 206.716005 
L 239.256 207.732926 
L 250.416 208.516753 
L 263.808 209.223992 
L 279.432 209.813056 
L 299.52 210.314203 
L 324.072 210.679742 
L 357.552 210.936026 
L 411.12 211.090478 
L 433 211.115276 
L 433 211.115276 
" style="fill:none;stroke:#ff0000;stroke-linecap:square;"/>
   </g>
   <g id="line2d_2">
    <defs>
     <path d="M 0 1.5 
C 0.397805 1.5 0.77937 1.341951 1.06066 1.06066 
C 1.341951 0.77937 1.5 0.397805 1.5 0 
C 1.5 -0.397805 1.341951 -0.77937 1.06066 -1.06066 
C 0.77937 -1.341951 0.397805 -1.5 0 -1.5 
C -0.397805 -1.5 -0.77937 -1.341951 -1.06066 -1.06066 
C -1.341951 -0.77937 -1.5 -0.397805 -1.5 0 
C -1.5 0.397805 -1.341951 0.77937 -1.06066 1.06066 
C -0.77937 1.341951 -0.397805 1.5 0 1.5 
z
" id="md183dd9455" style="stroke:#0000ff;stroke-width:0.5;"/>
    </defs>
    <g clip-path="url(#p4e19fb9a42)">
     <use style="fill:#0000ff;stroke:#0000ff;stroke-width:0.5;" x="54.0" xlink:href="#md183dd9455" y="60.6857142857"/>
     <use style="fill:#0000ff;stroke:#0000ff;stroke-width:0.5;" x="56.232" xlink:href="#md183dd9455" y="57.3359004398"/>
     <use style="fill:#0000ff;stroke:#0000ff;stroke-width:0.5;" x="58.464" xlink:href="#md183dd9455" y="52.7313050634"/>
     <use style="fill:#0000ff;stroke:#0000ff;stroke-width:0.5;" x="60.696" xlink:href="#md183dd9455" y="52.8322559379"/>
     <use style="fill:#0000ff;stroke:#0000ff;stroke-width:0.5;" x="62.928" xlink:href="#md183dd9455" y="51.4613310552"/>
     <use style="fill:#0000ff;stroke:#0000ff;stroke-width:0.5;" x="65.16" xlink:href="#md183dd9455" y="52.9618585628"/>
     <use style="fill:#0000ff;stroke:#0000ff;stroke-width:0.5;" x="67.392" xlink:href="#md183dd9455" y="59.7677655207"/>
     <use style="fill:#0000ff;stroke:#0000ff;stroke-width:0.5;" x="69.624" xlink:href="#md183dd9455" y="55.0126392416"/>
     <use style="fill:#0000ff;stroke:#0000ff;stroke-width:0.5;" x="71.856" xlink:href="#md183dd9455" y="55.6502008267"/>
     <use style="fill:#0000ff;stroke:#0000ff;stroke-width:0.5;" x="74.088" xlink:href="#md183dd9455" y="65.7058807216"/>
     <use style="fill:#0000ff;stroke:#0000ff;stroke-width:0.5;" x="76.32" xlink:href="#md183dd9455" y="63.3126265831"/>
     <use style="fill:#0000ff;stroke:#0000ff;stroke-width:0.5;" x="78.552" xlink:href="#md183dd9455" y="69.956953162"/>
     <use style="fill:#0000ff;stroke:#0000ff;stroke-width:0.5;" x="80.784" xlink:href="#md183dd9455" y="77.0059057614"/>
     <use style="fill:#0000ff;stroke:#0000ff;stroke-width:0.5;" x="83.016" xlink:href="#md183dd9455" y="78.2902466913"/>
     <use style="fill:#0000ff;stroke:#0000ff;stroke-width:0.5;" x="85.248" xlink:href="#md183dd9455" y="78.7253030917"/>
     <use style="fill:#0000ff;stroke:#0000ff;stroke-width:0.5;" x="87.48" xlink:href="#md183dd9455" y="88.9493632508"/>
     <use style="fill:#0000ff;stroke:#0000ff;stroke-width:0.5;" x="89.712" xlink:href="#md183dd9455" y="93.5439521072"/>
     <use style="fill:#0000ff;stroke:#0000ff;stroke-width:0.5;" x="91.944" xlink:href="#md183dd9455" y="105.372318007"/>
     <use style="fill:#0000ff;stroke:#0000ff;stroke-width:0.5;" x="94.176" xlink:href="#md183dd9455" y="109.95040772"/>
     <use style="fill:#0000ff;stroke:#0000ff;stroke-width:0.5;" x="96.408" xlink:href="#md183dd9455" y="117.546948902"/>
     <use style="fill:#0000ff;stroke:#0000ff;stroke-width:0.5;" x="98.64" xlink:href="#md183dd9455" y="126.411289649"/>
     <use style="fill:#0000ff;stroke:#0000ff;stroke-width:0.5;" x="100.872" xlink:href="#md183dd9455" y="131.611929175"/>
     <use style="fill:#0000ff;stroke:#0000ff;stroke-width:0.5;" x="103.104" xlink:href="#md183dd9455" y="138.992063731"/>
     <use style="fill:#0000ff;stroke:#0000ff;stroke-width:0.5;" x="105.336" xlink:href="#md183dd9455" y="137.808249398"/>
     <use style="fill:#0000ff;stroke:#0000ff;stroke-width:0.5;" x="107.568" xlink:href="#md183dd9455" y="138.625278684"/>
     <use style="fill:#0000ff;stroke:#0000ff;stroke-width:0.5;" x="109.8" xlink:href="#md183dd9455" y="138.735154515"/>
     <use style="fill:#0000ff;stroke:#0000ff;stroke-width:0.5;" x="112.032" xlink:href="#md183dd9455" y="147.657237503"/>
     <use style="fill:#0000ff;stroke:#0000ff;stroke-width:0.5;" x="114.264" xlink:href="#md183dd9455" y="154.671554713"/>
     <use style="fill:#0000ff;stroke:#0000ff;stroke-width:0.5;" x="116.496" xlink:href="#md183dd9455" y="153.829179881"/>
     <use style="fill:#0000ff;stroke:#0000ff;stroke-width:0.5;" x="118.728" xlink:href="#md183dd9455" y="151.868056595"/>
     <use style="fill:#0000ff;stroke:#0000ff;stroke-width:0.5;" x="120.96" xlink:href="#md183dd9455" y="152.504739801"/>
     <use style="fill:#0000ff;stroke:#0000ff;stroke-width:0.5;" x="123.192" xlink:href="#md183dd9455" y="156.439546592"/>
     <use style="fill:#0000ff;stroke:#0000ff;stroke-width:0.5;" x="125.424" xlink:href="#md183dd9455" y="162.583404428"/>
     <use style="fill:#0000ff;stroke:#0000ff;stroke-width:0.5;" x="127.656" xlink:href="#md183dd9455" y="167.069391205"/>
     <use style="fill:#0000ff;stroke:#0000ff;stroke-width:0.5;" x="129.888" xlink:href="#md183dd9455" y="167.349723709"/>
     <use style="fill:#0000ff;stroke:#0000ff;stroke-width:0.5;" x="132.12" xlink:href="#md183dd9455" y="165.221116192"/>
     <use style="fill:#0000ff;stroke:#0000ff;stroke-width:0.5;" x="134.352" xlink:href="#md183dd9455" y="163.55547788"/>
     <use style="fill:#0000ff;stroke:#0000ff;stroke-width:0.5;" x="136.584" xlink:href="#md183dd9455" y="170.846538363"/>
     <use style="fill:#0000ff;stroke:#0000ff;stroke-width:0.5;" x="138.816" xlink:href="#md183dd9455" y="168.337844427"/>
     <use style="fill:#0000ff;stroke:#0000ff;stroke-width:0.5;" x="141.048" xlink:href="#md183dd9455" y="171.933303267"/>
     <use style="fill:#0000ff;stroke:#0000ff;stroke-width:0.5;" x="143.28" xlink:href="#md183dd9455" y="174.995608576"/>
     <use style="fill:#0000ff;stroke:#0000ff;stroke-width:0.5;" x="145.512" xlink:href="#md183dd9455" y="178.934025681"/>
     <use style="fill:#0000ff;stroke:#0000ff;stroke-width:0.5;" x="147.744" xlink:href="#md183dd9455" y="176.371064996"/>
     <use style="fill:#0000ff;stroke:#0000ff;stroke-width:0.5;" x="149.976" xlink:href="#md183dd9455" y="179.343703367"/>
     <use style="fill:#0000ff;stroke:#0000ff;stroke-width:0.5;" x="152.208" xlink:href="#md183dd9455" y="175.801118477"/>
     <use style="fill:#0000ff;stroke:#0000ff;stroke-width:0.5;" x="154.44" xlink:href="#md183dd9455" y="175.145218259"/>
     <use style="fill:#0000ff;stroke:#0000ff;stroke-width:0.5;" x="156.672" xlink:href="#md183dd9455" y="185.593915847"/>
     <use style="fill:#0000ff;stroke:#0000ff;stroke-width:0.5;" x="158.904" xlink:href="#md183dd9455" y="193.254121287"/>
     <use style="fill:#0000ff;stroke:#0000ff;stroke-width:0.5;" x="161.136" xlink:href="#md183dd9455" y="190.364660896"/>
     <use style="fill:#0000ff;stroke:#0000ff;stroke-width:0.5;" x="163.368" xlink:href="#md183dd9455" y="197.503572985"/>
     <use style="fill:#0000ff;stroke:#0000ff;stroke-width:0.5;" x="165.6" xlink:href="#md183dd9455" y="200.801431433"/>
     <use style="fill:#0000ff;stroke:#0000ff;stroke-width:0.5;" x="167.832" xlink:href="#md183dd9455" y="199.605750959"/>
     <use style="fill:#0000ff;stroke:#0000ff;stroke-width:0.5;" x="170.064" xlink:href="#md183dd9455" y="193.654384435"/>
     <use style="fill:#0000ff;stroke:#0000ff;stroke-width:0.5;" x="172.296" xlink:href="#md183dd9455" y="195.181227184"/>
     <use style="fill:#0000ff;stroke:#0000ff;stroke-width:0.5;" x="174.528" xlink:href="#md183dd9455" y="194.669319789"/>
     <use style="fill:#0000ff;stroke:#0000ff;stroke-width:0.5;" x="176.76" xlink:href="#md183dd9455" y="194.524938907"/>
     <use style="fill:#0000ff;stroke:#0000ff;stroke-width:0.5;" x="178.992" xlink:href="#md183dd9455" y="194.656138577"/>
     <use style="fill:#0000ff;stroke:#0000ff;stroke-width:0.5;" x="181.224" xlink:href="#md183dd9455" y="195.038312382"/>
     <use style="fill:#0000ff;stroke:#0000ff;stroke-width:0.5;" x="183.456" xlink:href="#md183dd9455" y="196.314318986"/>
     <use style="fill:#0000ff;stroke:#0000ff;stroke-width:0.5;" x="185.688" xlink:href="#md183dd9455" y="194.505220987"/>
     <use style="fill:#0000ff;stroke:#0000ff;stroke-width:0.5;" x="187.92" xlink:href="#md183dd9455" y="199.564580775"/>
     <use style="fill:#0000ff;stroke:#0000ff;stroke-width:0.5;" x="190.152" xlink:href="#md183dd9455" y="204.09591307"/>
     <use style="fill:#0000ff;stroke:#0000ff;stroke-width:0.5;" x="192.384" xlink:href="#md183dd9455" y="207.142825915"/>
     <use style="fill:#0000ff;stroke:#0000ff;stroke-width:0.5;" x="194.616" xlink:href="#md183dd9455" y="199.392050399"/>
     <use style="fill:#0000ff;stroke:#0000ff;stroke-width:0.5;" x="196.848" xlink:href="#md183dd9455" y="201.476973663"/>
     <use style="fill:#0000ff;stroke:#0000ff;stroke-width:0.5;" x="199.08" xlink:href="#md183dd9455" y="194.387152063"/>
     <use style="fill:#0000ff;stroke:#0000ff;stroke-width:0.5;" x="201.312" xlink:href="#md183dd9455" y="200.971377638"/>
     <use style="fill:#0000ff;stroke:#0000ff;stroke-width:0.5;" x="203.544" xlink:href="#md183dd9455" y="196.467885839"/>
     <use style="fill:#0000ff;stroke:#0000ff;stroke-width:0.5;" x="205.776" xlink:href="#md183dd9455" y="200.173566827"/>
     <use style="fill:#0000ff;stroke:#0000ff;stroke-width:0.5;" x="208.008" xlink:href="#md183dd9455" y="204.855781245"/>
     <use style="fill:#0000ff;stroke:#0000ff;stroke-width:0.5;" x="210.24" xlink:href="#md183dd9455" y="207.746784846"/>
     <use style="fill:#0000ff;stroke:#0000ff;stroke-width:0.5;" x="212.472" xlink:href="#md183dd9455" y="204.015850876"/>
     <use style="fill:#0000ff;stroke:#0000ff;stroke-width:0.5;" x="214.704" xlink:href="#md183dd9455" y="206.776881582"/>
     <use style="fill:#0000ff;stroke:#0000ff;stroke-width:0.5;" x="216.936" xlink:href="#md183dd9455" y="203.88999274"/>
     <use style="fill:#0000ff;stroke:#0000ff;stroke-width:0.5;" x="219.168" xlink:href="#md183dd9455" y="205.948687377"/>
     <use style="fill:#0000ff;stroke:#0000ff;stroke-width:0.5;" x="221.4" xlink:href="#md183dd9455" y="207.780668649"/>
     <use style="fill:#0000ff;stroke:#0000ff;stroke-width:0.5;" x="223.632" xlink:href="#md183dd9455" y="208.763470523"/>
     <use style="fill:#0000ff;stroke:#0000ff;stroke-width:0.5;" x="225.864" xlink:href="#md183dd9455" y="203.284531197"/>
     <use style="fill:#0000ff;stroke:#0000ff;stroke-width:0.5;" x="228.096" xlink:href="#md183dd9455" y="204.309859877"/>
     <use style="fill:#0000ff;stroke:#0000ff;stroke-width:0.5;" x="230.328" xlink:href="#md183dd9455" y="204.858408731"/>
     <use style="fill:#0000ff;stroke:#0000ff;stroke-width:0.5;" x="232.56" xlink:href="#md183dd9455" y="207.100739894"/>
     <use style="fill:#0000ff;stroke:#0000ff;stroke-width:0.5;" x="234.792" xlink:href="#md183dd9455" y="203.190340487"/>
     <use style="fill:#0000ff;stroke:#0000ff;stroke-width:0.5;" x="237.024" xlink:href="#md183dd9455" y="204.500753681"/>
     <use style="fill:#0000ff;stroke:#0000ff;stroke-width:0.5;" x="239.256" xlink:href="#md183dd9455" y="204.56163448"/>
     <use style="fill:#0000ff;stroke:#0000ff;stroke-width:0.5;" x="241.488" xlink:href="#md183dd9455" y="206.898436594"/>
     <use style="fill:#0000ff;stroke:#0000ff;stroke-width:0.5;" x="243.72" xlink:href="#md183dd9455" y="212.008901542"/>
     <use style="fill:#0000ff;stroke:#0000ff;stroke-width:0.5;" x="245.952" xlink:href="#md183dd9455" y="210.389721814"/>
     <use style="fill:#0000ff;stroke:#0000ff;stroke-width:0.5;" x="248.184" xlink:href="#md183dd9455" y="207.272135794"/>
     <use style="fill:#0000ff;stroke:#0000ff;stroke-width:0.5;" x="250.416" xlink:href="#md183dd9455" y="211.475963516"/>
     <use style="fill:#0000ff;stroke:#0000ff;stroke-width:0.5;" x="252.648" xlink:href="#md183dd9455" y="216.52383243"/>
     <use style="fill:#0000ff;stroke:#0000ff;stroke-width:0.5;" x="254.88" xlink:href="#md183dd9455" y="214.424122285"/>
     <use style="fill:#0000ff;stroke:#0000ff;stroke-width:0.5;" x="257.112" xlink:href="#md183dd9455" y="220.932299449"/>
     <use style="fill:#0000ff;stroke:#0000ff;stroke-width:0.5;" x="259.344" xlink:href="#md183dd9455" y="226.522566623"/>
     <use style="fill:#0000ff;stroke:#0000ff;stroke-width:0.5;" x="261.576" xlink:href="#md183dd9455" y="219.022267426"/>
     <use style="fill:#0000ff;stroke:#0000ff;stroke-width:0.5;" x="263.808" xlink:href="#md183dd9455" y="215.892045472"/>
     <use style="fill:#0000ff;stroke:#0000ff;stroke-width:0.5;" x="266.04" xlink:href="#md183dd9455" y="218.685156001"/>
     <use style="fill:#0000ff;stroke:#0000ff;stroke-width:0.5;" x="268.272" xlink:href="#md183dd9455" y="214.865409161"/>
     <use style="fill:#0000ff;stroke:#0000ff;stroke-width:0.5;" x="270.504" xlink:href="#md183dd9455" y="215.224088173"/>
     <use style="fill:#0000ff;stroke:#0000ff;stroke-width:0.5;" x="272.736" xlink:href="#md183dd9455" y="218.404845903"/>
     <use style="fill:#0000ff;stroke:#0000ff;stroke-width:0.5;" x="274.968" xlink:href="#md183dd9455" y="218.706346668"/>
     <use style="fill:#0000ff;stroke:#0000ff;stroke-width:0.5;" x="277.2" xlink:href="#md183dd9455" y="218.602145753"/>
     <use style="fill:#0000ff;stroke:#0000ff;stroke-width:0.5;" x="279.432" xlink:href="#md183dd9455" y="216.278456674"/>
     <use style="fill:#0000ff;stroke:#0000ff;stroke-width:0.5;" x="281.664" xlink:href="#md183dd9455" y="214.354050125"/>
     <use style="fill:#0000ff;stroke:#0000ff;stroke-width:0.5;" x="283.896" xlink:href="#md183dd9455" y="214.283309778"/>
     <use style="fill:#0000ff;stroke:#0000ff;stroke-width:0.5;" x="286.128" xlink:href="#md183dd9455" y="210.344360153"/>
     <use style="fill:#0000ff;stroke:#0000ff;stroke-width:0.5;" x="288.36" xlink:href="#md183dd9455" y="214.323966258"/>
     <use style="fill:#0000ff;stroke:#0000ff;stroke-width:0.5;" x="290.592" xlink:href="#md183dd9455" y="216.915572897"/>
     <use style="fill:#0000ff;stroke:#0000ff;stroke-width:0.5;" x="292.824" xlink:href="#md183dd9455" y="221.273892389"/>
     <use style="fill:#0000ff;stroke:#0000ff;stroke-width:0.5;" x="295.056" xlink:href="#md183dd9455" y="220.39414936"/>
     <use style="fill:#0000ff;stroke:#0000ff;stroke-width:0.5;" x="297.288" xlink:href="#md183dd9455" y="223.05056566"/>
     <use style="fill:#0000ff;stroke:#0000ff;stroke-width:0.5;" x="299.52" xlink:href="#md183dd9455" y="226.751085466"/>
     <use style="fill:#0000ff;stroke:#0000ff;stroke-width:0.5;" x="301.752" xlink:href="#md183dd9455" y="227.408705092"/>
     <use style="fill:#0000ff;stroke:#0000ff;stroke-width:0.5;" x="303.984" xlink:href="#md183dd9455" y="228.834375665"/>
     <use style="fill:#0000ff;stroke:#0000ff;stroke-width:0.5;" x="306.216" xlink:href="#md183dd9455" y="224.310726607"/>
     <use style="fill:#0000ff;stroke:#0000ff;stroke-width:0.5;" x="308.448" xlink:href="#md183dd9455" y="230.006819366"/>
     <use style="fill:#0000ff;stroke:#0000ff;stroke-width:0.5;" x="310.68" xlink:href="#md183dd9455" y="219.69527859"/>
     <use style="fill:#0000ff;stroke:#0000ff;stroke-width:0.5;" x="312.912" xlink:href="#md183dd9455" y="222.463177101"/>
     <use style="fill:#0000ff;stroke:#0000ff;stroke-width:0.5;" x="315.144" xlink:href="#md183dd9455" y="216.351263838"/>
     <use style="fill:#0000ff;stroke:#0000ff;stroke-width:0.5;" x="317.376" xlink:href="#md183dd9455" y="220.683869608"/>
     <use style="fill:#0000ff;stroke:#0000ff;stroke-width:0.5;" x="319.608" xlink:href="#md183dd9455" y="219.622530479"/>
     <use style="fill:#0000ff;stroke:#0000ff;stroke-width:0.5;" x="321.84" xlink:href="#md183dd9455" y="223.022332314"/>
     <use style="fill:#0000ff;stroke:#0000ff;stroke-width:0.5;" x="324.072" xlink:href="#md183dd9455" y="219.927640675"/>
     <use style="fill:#0000ff;stroke:#0000ff;stroke-width:0.5;" x="326.304" xlink:href="#md183dd9455" y="217.724229128"/>
     <use style="fill:#0000ff;stroke:#0000ff;stroke-width:0.5;" x="328.536" xlink:href="#md183dd9455" y="218.891489147"/>
     <use style="fill:#0000ff;stroke:#0000ff;stroke-width:0.5;" x="330.768" xlink:href="#md183dd9455" y="218.599402404"/>
     <use style="fill:#0000ff;stroke:#0000ff;stroke-width:0.5;" x="333.0" xlink:href="#md183dd9455" y="220.302456027"/>
     <use style="fill:#0000ff;stroke:#0000ff;stroke-width:0.5;" x="335.232" xlink:href="#md183dd9455" y="217.002185334"/>
     <use style="fill:#0000ff;stroke:#0000ff;stroke-width:0.5;" x="337.464" xlink:href="#md183dd9455" y="219.410853632"/>
     <use style="fill:#0000ff;stroke:#0000ff;stroke-width:0.5;" x="339.696" xlink:href="#md183dd9455" y="222.625819869"/>
     <use style="fill:#0000ff;stroke:#0000ff;stroke-width:0.5;" x="341.928" xlink:href="#md183dd9455" y="222.214997383"/>
     <use style="fill:#0000ff;stroke:#0000ff;stroke-width:0.5;" x="344.16" xlink:href="#md183dd9455" y="223.631340364"/>
     <use style="fill:#0000ff;stroke:#0000ff;stroke-width:0.5;" x="346.392" xlink:href="#md183dd9455" y="218.442145088"/>
     <use style="fill:#0000ff;stroke:#0000ff;stroke-width:0.5;" x="348.624" xlink:href="#md183dd9455" y="222.934453517"/>
     <use style="fill:#0000ff;stroke:#0000ff;stroke-width:0.5;" x="350.856" xlink:href="#md183dd9455" y="220.980193478"/>
     <use style="fill:#0000ff;stroke:#0000ff;stroke-width:0.5;" x="353.088" xlink:href="#md183dd9455" y="219.513312454"/>
     <use style="fill:#0000ff;stroke:#0000ff;stroke-width:0.5;" x="355.32" xlink:href="#md183dd9455" y="220.813157208"/>
     <use style="fill:#0000ff;stroke:#0000ff;stroke-width:0.5;" x="357.552" xlink:href="#md183dd9455" y="219.676520324"/>
     <use style="fill:#0000ff;stroke:#0000ff;stroke-width:0.5;" x="359.784" xlink:href="#md183dd9455" y="215.904273892"/>
     <use style="fill:#0000ff;stroke:#0000ff;stroke-width:0.5;" x="362.016" xlink:href="#md183dd9455" y="216.551039604"/>
     <use style="fill:#0000ff;stroke:#0000ff;stroke-width:0.5;" x="364.248" xlink:href="#md183dd9455" y="213.587657807"/>
     <use style="fill:#0000ff;stroke:#0000ff;stroke-width:0.5;" x="366.48" xlink:href="#md183dd9455" y="209.943271374"/>
     <use style="fill:#0000ff;stroke:#0000ff;stroke-width:0.5;" x="368.712" xlink:href="#md183dd9455" y="202.821094091"/>
     <use style="fill:#0000ff;stroke:#0000ff;stroke-width:0.5;" x="370.944" xlink:href="#md183dd9455" y="202.880703811"/>
     <use style="fill:#0000ff;stroke:#0000ff;stroke-width:0.5;" x="373.176" xlink:href="#md183dd9455" y="198.285007951"/>
     <use style="fill:#0000ff;stroke:#0000ff;stroke-width:0.5;" x="375.408" xlink:href="#md183dd9455" y="204.184474355"/>
     <use style="fill:#0000ff;stroke:#0000ff;stroke-width:0.5;" x="377.64" xlink:href="#md183dd9455" y="196.66479256"/>
     <use style="fill:#0000ff;stroke:#0000ff;stroke-width:0.5;" x="379.872" xlink:href="#md183dd9455" y="205.989857513"/>
     <use style="fill:#0000ff;stroke:#0000ff;stroke-width:0.5;" x="382.104" xlink:href="#md183dd9455" y="206.132527132"/>
     <use style="fill:#0000ff;stroke:#0000ff;stroke-width:0.5;" x="384.336" xlink:href="#md183dd9455" y="209.167219391"/>
     <use style="fill:#0000ff;stroke:#0000ff;stroke-width:0.5;" x="386.568" xlink:href="#md183dd9455" y="210.274828265"/>
     <use style="fill:#0000ff;stroke:#0000ff;stroke-width:0.5;" x="388.8" xlink:href="#md183dd9455" y="208.672810806"/>
     <use style="fill:#0000ff;stroke:#0000ff;stroke-width:0.5;" x="391.032" xlink:href="#md183dd9455" y="211.258168226"/>
     <use style="fill:#0000ff;stroke:#0000ff;stroke-width:0.5;" x="393.264" xlink:href="#md183dd9455" y="203.040638203"/>
     <use style="fill:#0000ff;stroke:#0000ff;stroke-width:0.5;" x="395.496" xlink:href="#md183dd9455" y="201.022129027"/>
     <use style="fill:#0000ff;stroke:#0000ff;stroke-width:0.5;" x="397.728" xlink:href="#md183dd9455" y="204.553105308"/>
     <use style="fill:#0000ff;stroke:#0000ff;stroke-width:0.5;" x="399.96" xlink:href="#md183dd9455" y="200.983629632"/>
     <use style="fill:#0000ff;stroke:#0000ff;stroke-width:0.5;" x="402.192" xlink:href="#md183dd9455" y="204.626973283"/>
     <use style="fill:#0000ff;stroke:#0000ff;stroke-width:0.5;" x="404.424" xlink:href="#md183dd9455" y="209.168779228"/>
     <use style="fill:#0000ff;stroke:#0000ff;stroke-width:0.5;" x="406.656" xlink:href="#md183dd9455" y="204.356047734"/>
     <use style="fill:#0000ff;stroke:#0000ff;stroke-width:0.5;" x="408.888" xlink:href="#md183dd9455" y="202.648496273"/>
     <use style="fill:#0000ff;stroke:#0000ff;stroke-width:0.5;" x="411.12" xlink:href="#md183dd9455" y="200.285115368"/>
     <use style="fill:#0000ff;stroke:#0000ff;stroke-width:0.5;" x="413.352" xlink:href="#md183dd9455" y="199.797427811"/>
     <use style="fill:#0000ff;stroke:#0000ff;stroke-width:0.5;" x="415.584" xlink:href="#md183dd9455" y="201.772998159"/>
     <use style="fill:#0000ff;stroke:#0000ff;stroke-width:0.5;" x="417.816" xlink:href="#md183dd9455" y="202.109584682"/>
     <use style="fill:#0000ff;stroke:#0000ff;stroke-width:0.5;" x="420.048" xlink:href="#md183dd9455" y="201.955137218"/>
     <use style="fill:#0000ff;stroke:#0000ff;stroke-width:0.5;" x="422.28" xlink:href="#md183dd9455" y="206.631091491"/>
     <use style="fill:#0000ff;stroke:#0000ff;stroke-width:0.5;" x="424.512" xlink:href="#md183dd9455" y="198.861819092"/>
     <use style="fill:#0000ff;stroke:#0000ff;stroke-width:0.5;" x="426.744" xlink:href="#md183dd9455" y="199.081357016"/>
     <use style="fill:#0000ff;stroke:#0000ff;stroke-width:0.5;" x="428.976" xlink:href="#md183dd9455" y="199.324547405"/>
     <use style="fill:#0000ff;stroke:#0000ff;stroke-width:0.5;" x="431.208" xlink:href="#md183dd9455" y="208.455402006"/>
     <use style="fill:#0000ff;stroke:#0000ff;stroke-width:0.5;" x="433.44" xlink:href="#md183dd9455" y="205.479980321"/>
     <use style="fill:#0000ff;stroke:#0000ff;stroke-width:0.5;" x="435.672" xlink:href="#md183dd9455" y="201.923703669"/>
     <use style="fill:#0000ff;stroke:#0000ff;stroke-width:0.5;" x="437.904" xlink:href="#md183dd9455" y="202.940637133"/>
     <use style="fill:#0000ff;stroke:#0000ff;stroke-width:0.5;" x="440.136" xlink:href="#md183dd9455" y="198.195443903"/>
     <use style="fill:#0000ff;stroke:#0000ff;stroke-width:0.5;" x="442.368" xlink:href="#md183dd9455" y="198.171135853"/>
     <use style="fill:#0000ff;stroke:#0000ff;stroke-width:0.5;" x="444.6" xlink:href="#md183dd9455" y="203.900736058"/>
     <use style="fill:#0000ff;stroke:#0000ff;stroke-width:0.5;" x="446.832" xlink:href="#md183dd9455" y="197.966087952"/>
     <use style="fill:#0000ff;stroke:#0000ff;stroke-width:0.5;" x="449.064" xlink:href="#md183dd9455" y="202.639518796"/>
     <use style="fill:#0000ff;stroke:#0000ff;stroke-width:0.5;" x="451.296" xlink:href="#md183dd9455" y="205.6160374"/>
     <use style="fill:#0000ff;stroke:#0000ff;stroke-width:0.5;" x="453.528" xlink:href="#md183dd9455" y="203.831407923"/>
     <use style="fill:#0000ff;stroke:#0000ff;stroke-width:0.5;" x="455.76" xlink:href="#md183dd9455" y="204.360983792"/>
     <use style="fill:#0000ff;stroke:#0000ff;stroke-width:0.5;" x="457.992" xlink:href="#md183dd9455" y="203.936039267"/>
     <use style="fill:#0000ff;stroke:#0000ff;stroke-width:0.5;" x="460.224" xlink:href="#md183dd9455" y="207.847673358"/>
     <use style="fill:#0000ff;stroke:#0000ff;stroke-width:0.5;" x="462.456" xlink:href="#md183dd9455" y="203.725638673"/>
     <use style="fill:#0000ff;stroke:#0000ff;stroke-width:0.5;" x="464.688" xlink:href="#md183dd9455" y="205.226946172"/>
     <use style="fill:#0000ff;stroke:#0000ff;stroke-width:0.5;" x="466.92" xlink:href="#md183dd9455" y="204.189656879"/>
     <use style="fill:#0000ff;stroke:#0000ff;stroke-width:0.5;" x="469.152" xlink:href="#md183dd9455" y="202.115364965"/>
     <use style="fill:#0000ff;stroke:#0000ff;stroke-width:0.5;" x="471.384" xlink:href="#md183dd9455" y="206.439352793"/>
     <use style="fill:#0000ff;stroke:#0000ff;stroke-width:0.5;" x="473.616" xlink:href="#md183dd9455" y="201.204184608"/>
     <use style="fill:#0000ff;stroke:#0000ff;stroke-width:0.5;" x="475.848" xlink:href="#md183dd9455" y="201.585571559"/>
     <use style="fill:#0000ff;stroke:#0000ff;stroke-width:0.5;" x="478.08" xlink:href="#md183dd9455" y="196.670436732"/>
     <use style="fill:#0000ff;stroke:#0000ff;stroke-width:0.5;" x="480.312" xlink:href="#md183dd9455" y="196.848638484"/>
     <use style="fill:#0000ff;stroke:#0000ff;stroke-width:0.5;" x="482.544" xlink:href="#md183dd9455" y="195.374064944"/>
    </g>
   </g>
   <g id="patch_3">
    <path d="M 54 28.8 
L 388.8 28.8 
" style="fill:none;stroke:#000000;stroke-linecap:square;stroke-linejoin:miter;"/>
   </g>
   <g id="patch_4">
    <path d="M 388.8 252 
L 388.8 28.8 
" style="fill:none;stroke:#000000;stroke-linecap:square;stroke-linejoin:miter;"/>
   </g>
   <g id="patch_5">
    <path d="M 54 252 
L 388.8 252 
" style="fill:none;stroke:#000000;stroke-linecap:square;stroke-linejoin:miter;"/>
   </g>
   <g id="patch_6">
    <path d="M 54 252 
L 54 28.8 
" style="fill:none;stroke:#000000;stroke-linecap:square;stroke-linejoin:miter;"/>
   </g>
   <g id="matplotlib.axis_1">
    <g id="xtick_1">
     <g id="line2d_3">
      <defs>
       <path d="M 0 0 
L 0 -4 
" id="m196cd7cb1e" style="stroke:#000000;stroke-width:0.5;"/>
      </defs>
      <g>
       <use style="stroke:#000000;stroke-width:0.5;" x="54.0" xlink:href="#m196cd7cb1e" y="252.0"/>
      </g>
     </g>
     <g id="line2d_4">
      <defs>
       <path d="M 0 0 
L 0 4 
" id="mfddeaece2b" style="stroke:#000000;stroke-width:0.5;"/>
      </defs>
      <g>
       <use style="stroke:#000000;stroke-width:0.5;" x="54.0" xlink:href="#mfddeaece2b" y="28.8"/>
      </g>
     </g>
     <g id="text_1">
      <!-- 0.0 -->
      <defs>
       <path d="M 31.78125 66.40625 
Q 24.171875 66.40625 20.328125 58.90625 
Q 16.5 51.421875 16.5 36.375 
Q 16.5 21.390625 20.328125 13.890625 
Q 24.171875 6.390625 31.78125 6.390625 
Q 39.453125 6.390625 43.28125 13.890625 
Q 47.125 21.390625 47.125 36.375 
Q 47.125 51.421875 43.28125 58.90625 
Q 39.453125 66.40625 31.78125 66.40625 
M 31.78125 74.21875 
Q 44.046875 74.21875 50.515625 64.515625 
Q 56.984375 54.828125 56.984375 36.375 
Q 56.984375 17.96875 50.515625 8.265625 
Q 44.046875 -1.421875 31.78125 -1.421875 
Q 19.53125 -1.421875 13.0625 8.265625 
Q 6.59375 17.96875 6.59375 36.375 
Q 6.59375 54.828125 13.0625 64.515625 
Q 19.53125 74.21875 31.78125 74.21875 
" id="BitstreamVeraSans-Roman-30"/>
       <path d="M 10.6875 12.40625 
L 21 12.40625 
L 21 0 
L 10.6875 0 
z
" id="BitstreamVeraSans-Roman-2e"/>
      </defs>
      <g transform="translate(46.0484375 263.5984375)scale(0.1 -0.1)">
       <use xlink:href="#BitstreamVeraSans-Roman-30"/>
       <use x="63.623046875" xlink:href="#BitstreamVeraSans-Roman-2e"/>
       <use x="95.41015625" xlink:href="#BitstreamVeraSans-Roman-30"/>
      </g>
     </g>
    </g>
    <g id="xtick_2">
     <g id="line2d_5">
      <g>
       <use style="stroke:#000000;stroke-width:0.5;" x="109.8" xlink:href="#m196cd7cb1e" y="252.0"/>
      </g>
     </g>
     <g id="line2d_6">
      <g>
       <use style="stroke:#000000;stroke-width:0.5;" x="109.8" xlink:href="#mfddeaece2b" y="28.8"/>
      </g>
     </g>
     <g id="text_2">
      <!-- 0.5 -->
      <defs>
       <path d="M 10.796875 72.90625 
L 49.515625 72.90625 
L 49.515625 64.59375 
L 19.828125 64.59375 
L 19.828125 46.734375 
Q 21.96875 47.46875 24.109375 47.828125 
Q 26.265625 48.1875 28.421875 48.1875 
Q 40.625 48.1875 47.75 41.5 
Q 54.890625 34.8125 54.890625 23.390625 
Q 54.890625 11.625 47.5625 5.09375 
Q 40.234375 -1.421875 26.90625 -1.421875 
Q 22.3125 -1.421875 17.546875 -0.640625 
Q 12.796875 0.140625 7.71875 1.703125 
L 7.71875 11.625 
Q 12.109375 9.234375 16.796875 8.0625 
Q 21.484375 6.890625 26.703125 6.890625 
Q 35.15625 6.890625 40.078125 11.328125 
Q 45.015625 15.765625 45.015625 23.390625 
Q 45.015625 31 40.078125 35.4375 
Q 35.15625 39.890625 26.703125 39.890625 
Q 22.75 39.890625 18.8125 39.015625 
Q 14.890625 38.140625 10.796875 36.28125 
z
" id="BitstreamVeraSans-Roman-35"/>
      </defs>
      <g transform="translate(101.8484375 263.5984375)scale(0.1 -0.1)">
       <use xlink:href="#BitstreamVeraSans-Roman-30"/>
       <use x="63.623046875" xlink:href="#BitstreamVeraSans-Roman-2e"/>
       <use x="95.41015625" xlink:href="#BitstreamVeraSans-Roman-35"/>
      </g>
     </g>
    </g>
    <g id="xtick_3">
     <g id="line2d_7">
      <g>
       <use style="stroke:#000000;stroke-width:0.5;" x="165.6" xlink:href="#m196cd7cb1e" y="252.0"/>
      </g>
     </g>
     <g id="line2d_8">
      <g>
       <use style="stroke:#000000;stroke-width:0.5;" x="165.6" xlink:href="#mfddeaece2b" y="28.8"/>
      </g>
     </g>
     <g id="text_3">
      <!-- 1.0 -->
      <defs>
       <path d="M 12.40625 8.296875 
L 28.515625 8.296875 
L 28.515625 63.921875 
L 10.984375 60.40625 
L 10.984375 69.390625 
L 28.421875 72.90625 
L 38.28125 72.90625 
L 38.28125 8.296875 
L 54.390625 8.296875 
L 54.390625 0 
L 12.40625 0 
z
" id="BitstreamVeraSans-Roman-31"/>
      </defs>
      <g transform="translate(157.6484375 263.5984375)scale(0.1 -0.1)">
       <use xlink:href="#BitstreamVeraSans-Roman-31"/>
       <use x="63.623046875" xlink:href="#BitstreamVeraSans-Roman-2e"/>
       <use x="95.41015625" xlink:href="#BitstreamVeraSans-Roman-30"/>
      </g>
     </g>
    </g>
    <g id="xtick_4">
     <g id="line2d_9">
      <g>
       <use style="stroke:#000000;stroke-width:0.5;" x="221.4" xlink:href="#m196cd7cb1e" y="252.0"/>
      </g>
     </g>
     <g id="line2d_10">
      <g>
       <use style="stroke:#000000;stroke-width:0.5;" x="221.4" xlink:href="#mfddeaece2b" y="28.8"/>
      </g>
     </g>
     <g id="text_4">
      <!-- 1.5 -->
      <g transform="translate(213.4484375 263.5984375)scale(0.1 -0.1)">
       <use xlink:href="#BitstreamVeraSans-Roman-31"/>
       <use x="63.623046875" xlink:href="#BitstreamVeraSans-Roman-2e"/>
       <use x="95.41015625" xlink:href="#BitstreamVeraSans-Roman-35"/>
      </g>
     </g>
    </g>
    <g id="xtick_5">
     <g id="line2d_11">
      <g>
       <use style="stroke:#000000;stroke-width:0.5;" x="277.2" xlink:href="#m196cd7cb1e" y="252.0"/>
      </g>
     </g>
     <g id="line2d_12">
      <g>
       <use style="stroke:#000000;stroke-width:0.5;" x="277.2" xlink:href="#mfddeaece2b" y="28.8"/>
      </g>
     </g>
     <g id="text_5">
      <!-- 2.0 -->
      <defs>
       <path d="M 19.1875 8.296875 
L 53.609375 8.296875 
L 53.609375 0 
L 7.328125 0 
L 7.328125 8.296875 
Q 12.9375 14.109375 22.625 23.890625 
Q 32.328125 33.6875 34.8125 36.53125 
Q 39.546875 41.84375 41.421875 45.53125 
Q 43.3125 49.21875 43.3125 52.78125 
Q 43.3125 58.59375 39.234375 62.25 
Q 35.15625 65.921875 28.609375 65.921875 
Q 23.96875 65.921875 18.8125 64.3125 
Q 13.671875 62.703125 7.8125 59.421875 
L 7.8125 69.390625 
Q 13.765625 71.78125 18.9375 73 
Q 24.125 74.21875 28.421875 74.21875 
Q 39.75 74.21875 46.484375 68.546875 
Q 53.21875 62.890625 53.21875 53.421875 
Q 53.21875 48.921875 51.53125 44.890625 
Q 49.859375 40.875 45.40625 35.40625 
Q 44.1875 33.984375 37.640625 27.21875 
Q 31.109375 20.453125 19.1875 8.296875 
" id="BitstreamVeraSans-Roman-32"/>
      </defs>
      <g transform="translate(269.2484375 263.5984375)scale(0.1 -0.1)">
       <use xlink:href="#BitstreamVeraSans-Roman-32"/>
       <use x="63.623046875" xlink:href="#BitstreamVeraSans-Roman-2e"/>
       <use x="95.41015625" xlink:href="#BitstreamVeraSans-Roman-30"/>
      </g>
     </g>
    </g>
    <g id="xtick_6">
     <g id="line2d_13">
      <g>
       <use style="stroke:#000000;stroke-width:0.5;" x="333.0" xlink:href="#m196cd7cb1e" y="252.0"/>
      </g>
     </g>
     <g id="line2d_14">
      <g>
       <use style="stroke:#000000;stroke-width:0.5;" x="333.0" xlink:href="#mfddeaece2b" y="28.8"/>
      </g>
     </g>
     <g id="text_6">
      <!-- 2.5 -->
      <g transform="translate(325.0484375 263.5984375)scale(0.1 -0.1)">
       <use xlink:href="#BitstreamVeraSans-Roman-32"/>
       <use x="63.623046875" xlink:href="#BitstreamVeraSans-Roman-2e"/>
       <use x="95.41015625" xlink:href="#BitstreamVeraSans-Roman-35"/>
      </g>
     </g>
    </g>
    <g id="xtick_7">
     <g id="line2d_15">
      <g>
       <use style="stroke:#000000;stroke-width:0.5;" x="388.8" xlink:href="#m196cd7cb1e" y="252.0"/>
      </g>
     </g>
     <g id="line2d_16">
      <g>
       <use style="stroke:#000000;stroke-width:0.5;" x="388.8" xlink:href="#mfddeaece2b" y="28.8"/>
      </g>
     </g>
     <g id="text_7">
      <!-- 3.0 -->
      <defs>
       <path d="M 40.578125 39.3125 
Q 47.65625 37.796875 51.625 33 
Q 55.609375 28.21875 55.609375 21.1875 
Q 55.609375 10.40625 48.1875 4.484375 
Q 40.765625 -1.421875 27.09375 -1.421875 
Q 22.515625 -1.421875 17.65625 -0.515625 
Q 12.796875 0.390625 7.625 2.203125 
L 7.625 11.71875 
Q 11.71875 9.328125 16.59375 8.109375 
Q 21.484375 6.890625 26.8125 6.890625 
Q 36.078125 6.890625 40.9375 10.546875 
Q 45.796875 14.203125 45.796875 21.1875 
Q 45.796875 27.640625 41.28125 31.265625 
Q 36.765625 34.90625 28.71875 34.90625 
L 20.21875 34.90625 
L 20.21875 43.015625 
L 29.109375 43.015625 
Q 36.375 43.015625 40.234375 45.921875 
Q 44.09375 48.828125 44.09375 54.296875 
Q 44.09375 59.90625 40.109375 62.90625 
Q 36.140625 65.921875 28.71875 65.921875 
Q 24.65625 65.921875 20.015625 65.03125 
Q 15.375 64.15625 9.8125 62.3125 
L 9.8125 71.09375 
Q 15.4375 72.65625 20.34375 73.4375 
Q 25.25 74.21875 29.59375 74.21875 
Q 40.828125 74.21875 47.359375 69.109375 
Q 53.90625 64.015625 53.90625 55.328125 
Q 53.90625 49.265625 50.4375 45.09375 
Q 46.96875 40.921875 40.578125 39.3125 
" id="BitstreamVeraSans-Roman-33"/>
      </defs>
      <g transform="translate(380.8484375 263.5984375)scale(0.1 -0.1)">
       <use xlink:href="#BitstreamVeraSans-Roman-33"/>
       <use x="63.623046875" xlink:href="#BitstreamVeraSans-Roman-2e"/>
       <use x="95.41015625" xlink:href="#BitstreamVeraSans-Roman-30"/>
      </g>
     </g>
    </g>
   </g>
   <g id="matplotlib.axis_2">
    <g id="ytick_1">
     <g id="line2d_17">
      <defs>
       <path d="M 0 0 
L 4 0 
" id="m95a0ce3eae" style="stroke:#000000;stroke-width:0.5;"/>
      </defs>
      <g>
       <use style="stroke:#000000;stroke-width:0.5;" x="54.0" xlink:href="#m95a0ce3eae" y="252.0"/>
      </g>
     </g>
     <g id="line2d_18">
      <defs>
       <path d="M 0 0 
L -4 0 
" id="m77418a83f3" style="stroke:#000000;stroke-width:0.5;"/>
      </defs>
      <g>
       <use style="stroke:#000000;stroke-width:0.5;" x="388.8" xlink:href="#m77418a83f3" y="252.0"/>
      </g>
     </g>
     <g id="text_8">
      <!-- −0.12 -->
      <defs>
       <path d="M 10.59375 35.5 
L 73.1875 35.5 
L 73.1875 27.203125 
L 10.59375 27.203125 
z
" id="BitstreamVeraSans-Roman-2212"/>
      </defs>
      <g transform="translate(19.3546875 254.759375)scale(0.1 -0.1)">
       <use xlink:href="#BitstreamVeraSans-Roman-2212"/>
       <use x="83.7890625" xlink:href="#BitstreamVeraSans-Roman-30"/>
       <use x="147.412109375" xlink:href="#BitstreamVeraSans-Roman-2e"/>
       <use x="179.19921875" xlink:href="#BitstreamVeraSans-Roman-31"/>
       <use x="242.822265625" xlink:href="#BitstreamVeraSans-Roman-32"/>
      </g>
     </g>
    </g>
    <g id="ytick_2">
     <g id="line2d_19">
      <g>
       <use style="stroke:#000000;stroke-width:0.5;" x="54.0" xlink:href="#m95a0ce3eae" y="220.114285714"/>
      </g>
     </g>
     <g id="line2d_20">
      <g>
       <use style="stroke:#000000;stroke-width:0.5;" x="388.8" xlink:href="#m77418a83f3" y="220.114285714"/>
      </g>
     </g>
     <g id="text_9">
      <!-- −0.10 -->
      <g transform="translate(19.3546875 222.873660714)scale(0.1 -0.1)">
       <use xlink:href="#BitstreamVeraSans-Roman-2212"/>
       <use x="83.7890625" xlink:href="#BitstreamVeraSans-Roman-30"/>
       <use x="147.412109375" xlink:href="#BitstreamVeraSans-Roman-2e"/>
       <use x="179.19921875" xlink:href="#BitstreamVeraSans-Roman-31"/>
       <use x="242.822265625" xlink:href="#BitstreamVeraSans-Roman-30"/>
      </g>
     </g>
    </g>
    <g id="ytick_3">
     <g id="line2d_21">
      <g>
       <use style="stroke:#000000;stroke-width:0.5;" x="54.0" xlink:href="#m95a0ce3eae" y="188.228571429"/>
      </g>
     </g>
     <g id="line2d_22">
      <g>
       <use style="stroke:#000000;stroke-width:0.5;" x="388.8" xlink:href="#m77418a83f3" y="188.228571429"/>
      </g>
     </g>
     <g id="text_10">
      <!-- −0.08 -->
      <defs>
       <path d="M 31.78125 34.625 
Q 24.75 34.625 20.71875 30.859375 
Q 16.703125 27.09375 16.703125 20.515625 
Q 16.703125 13.921875 20.71875 10.15625 
Q 24.75 6.390625 31.78125 6.390625 
Q 38.8125 6.390625 42.859375 10.171875 
Q 46.921875 13.96875 46.921875 20.515625 
Q 46.921875 27.09375 42.890625 30.859375 
Q 38.875 34.625 31.78125 34.625 
M 21.921875 38.8125 
Q 15.578125 40.375 12.03125 44.71875 
Q 8.5 49.078125 8.5 55.328125 
Q 8.5 64.0625 14.71875 69.140625 
Q 20.953125 74.21875 31.78125 74.21875 
Q 42.671875 74.21875 48.875 69.140625 
Q 55.078125 64.0625 55.078125 55.328125 
Q 55.078125 49.078125 51.53125 44.71875 
Q 48 40.375 41.703125 38.8125 
Q 48.828125 37.15625 52.796875 32.3125 
Q 56.78125 27.484375 56.78125 20.515625 
Q 56.78125 9.90625 50.3125 4.234375 
Q 43.84375 -1.421875 31.78125 -1.421875 
Q 19.734375 -1.421875 13.25 4.234375 
Q 6.78125 9.90625 6.78125 20.515625 
Q 6.78125 27.484375 10.78125 32.3125 
Q 14.796875 37.15625 21.921875 38.8125 
M 18.3125 54.390625 
Q 18.3125 48.734375 21.84375 45.5625 
Q 25.390625 42.390625 31.78125 42.390625 
Q 38.140625 42.390625 41.71875 45.5625 
Q 45.3125 48.734375 45.3125 54.390625 
Q 45.3125 60.0625 41.71875 63.234375 
Q 38.140625 66.40625 31.78125 66.40625 
Q 25.390625 66.40625 21.84375 63.234375 
Q 18.3125 60.0625 18.3125 54.390625 
" id="BitstreamVeraSans-Roman-38"/>
      </defs>
      <g transform="translate(19.3546875 190.987946429)scale(0.1 -0.1)">
       <use xlink:href="#BitstreamVeraSans-Roman-2212"/>
       <use x="83.7890625" xlink:href="#BitstreamVeraSans-Roman-30"/>
       <use x="147.412109375" xlink:href="#BitstreamVeraSans-Roman-2e"/>
       <use x="179.19921875" xlink:href="#BitstreamVeraSans-Roman-30"/>
       <use x="242.822265625" xlink:href="#BitstreamVeraSans-Roman-38"/>
      </g>
     </g>
    </g>
    <g id="ytick_4">
     <g id="line2d_23">
      <g>
       <use style="stroke:#000000;stroke-width:0.5;" x="54.0" xlink:href="#m95a0ce3eae" y="156.342857143"/>
      </g>
     </g>
     <g id="line2d_24">
      <g>
       <use style="stroke:#000000;stroke-width:0.5;" x="388.8" xlink:href="#m77418a83f3" y="156.342857143"/>
      </g>
     </g>
     <g id="text_11">
      <!-- −0.06 -->
      <defs>
       <path d="M 33.015625 40.375 
Q 26.375 40.375 22.484375 35.828125 
Q 18.609375 31.296875 18.609375 23.390625 
Q 18.609375 15.53125 22.484375 10.953125 
Q 26.375 6.390625 33.015625 6.390625 
Q 39.65625 6.390625 43.53125 10.953125 
Q 47.40625 15.53125 47.40625 23.390625 
Q 47.40625 31.296875 43.53125 35.828125 
Q 39.65625 40.375 33.015625 40.375 
M 52.59375 71.296875 
L 52.59375 62.3125 
Q 48.875 64.0625 45.09375 64.984375 
Q 41.3125 65.921875 37.59375 65.921875 
Q 27.828125 65.921875 22.671875 59.328125 
Q 17.53125 52.734375 16.796875 39.40625 
Q 19.671875 43.65625 24.015625 45.921875 
Q 28.375 48.1875 33.59375 48.1875 
Q 44.578125 48.1875 50.953125 41.515625 
Q 57.328125 34.859375 57.328125 23.390625 
Q 57.328125 12.15625 50.6875 5.359375 
Q 44.046875 -1.421875 33.015625 -1.421875 
Q 20.359375 -1.421875 13.671875 8.265625 
Q 6.984375 17.96875 6.984375 36.375 
Q 6.984375 53.65625 15.1875 63.9375 
Q 23.390625 74.21875 37.203125 74.21875 
Q 40.921875 74.21875 44.703125 73.484375 
Q 48.484375 72.75 52.59375 71.296875 
" id="BitstreamVeraSans-Roman-36"/>
      </defs>
      <g transform="translate(19.3546875 159.102232143)scale(0.1 -0.1)">
       <use xlink:href="#BitstreamVeraSans-Roman-2212"/>
       <use x="83.7890625" xlink:href="#BitstreamVeraSans-Roman-30"/>
       <use x="147.412109375" xlink:href="#BitstreamVeraSans-Roman-2e"/>
       <use x="179.19921875" xlink:href="#BitstreamVeraSans-Roman-30"/>
       <use x="242.822265625" xlink:href="#BitstreamVeraSans-Roman-36"/>
      </g>
     </g>
    </g>
    <g id="ytick_5">
     <g id="line2d_25">
      <g>
       <use style="stroke:#000000;stroke-width:0.5;" x="54.0" xlink:href="#m95a0ce3eae" y="124.457142857"/>
      </g>
     </g>
     <g id="line2d_26">
      <g>
       <use style="stroke:#000000;stroke-width:0.5;" x="388.8" xlink:href="#m77418a83f3" y="124.457142857"/>
      </g>
     </g>
     <g id="text_12">
      <!-- −0.04 -->
      <defs>
       <path d="M 37.796875 64.3125 
L 12.890625 25.390625 
L 37.796875 25.390625 
z
M 35.203125 72.90625 
L 47.609375 72.90625 
L 47.609375 25.390625 
L 58.015625 25.390625 
L 58.015625 17.1875 
L 47.609375 17.1875 
L 47.609375 0 
L 37.796875 0 
L 37.796875 17.1875 
L 4.890625 17.1875 
L 4.890625 26.703125 
z
" id="BitstreamVeraSans-Roman-34"/>
      </defs>
      <g transform="translate(19.3546875 127.216517857)scale(0.1 -0.1)">
       <use xlink:href="#BitstreamVeraSans-Roman-2212"/>
       <use x="83.7890625" xlink:href="#BitstreamVeraSans-Roman-30"/>
       <use x="147.412109375" xlink:href="#BitstreamVeraSans-Roman-2e"/>
       <use x="179.19921875" xlink:href="#BitstreamVeraSans-Roman-30"/>
       <use x="242.822265625" xlink:href="#BitstreamVeraSans-Roman-34"/>
      </g>
     </g>
    </g>
    <g id="ytick_6">
     <g id="line2d_27">
      <g>
       <use style="stroke:#000000;stroke-width:0.5;" x="54.0" xlink:href="#m95a0ce3eae" y="92.5714285714"/>
      </g>
     </g>
     <g id="line2d_28">
      <g>
       <use style="stroke:#000000;stroke-width:0.5;" x="388.8" xlink:href="#m77418a83f3" y="92.5714285714"/>
      </g>
     </g>
     <g id="text_13">
      <!-- −0.02 -->
      <g transform="translate(19.3546875 95.3308035714)scale(0.1 -0.1)">
       <use xlink:href="#BitstreamVeraSans-Roman-2212"/>
       <use x="83.7890625" xlink:href="#BitstreamVeraSans-Roman-30"/>
       <use x="147.412109375" xlink:href="#BitstreamVeraSans-Roman-2e"/>
       <use x="179.19921875" xlink:href="#BitstreamVeraSans-Roman-30"/>
       <use x="242.822265625" xlink:href="#BitstreamVeraSans-Roman-32"/>
      </g>
     </g>
    </g>
    <g id="ytick_7">
     <g id="line2d_29">
      <g>
       <use style="stroke:#000000;stroke-width:0.5;" x="54.0" xlink:href="#m95a0ce3eae" y="60.6857142857"/>
      </g>
     </g>
     <g id="line2d_30">
      <g>
       <use style="stroke:#000000;stroke-width:0.5;" x="388.8" xlink:href="#m77418a83f3" y="60.6857142857"/>
      </g>
     </g>
     <g id="text_14">
      <!-- 0.00 -->
      <g transform="translate(27.734375 63.4450892857)scale(0.1 -0.1)">
       <use xlink:href="#BitstreamVeraSans-Roman-30"/>
       <use x="63.623046875" xlink:href="#BitstreamVeraSans-Roman-2e"/>
       <use x="95.41015625" xlink:href="#BitstreamVeraSans-Roman-30"/>
       <use x="159.033203125" xlink:href="#BitstreamVeraSans-Roman-30"/>
      </g>
     </g>
    </g>
    <g id="ytick_8">
     <g id="line2d_31">
      <g>
       <use style="stroke:#000000;stroke-width:0.5;" x="54.0" xlink:href="#m95a0ce3eae" y="28.8"/>
      </g>
     </g>
     <g id="line2d_32">
      <g>
       <use style="stroke:#000000;stroke-width:0.5;" x="388.8" xlink:href="#m77418a83f3" y="28.8"/>
      </g>
     </g>
     <g id="text_15">
      <!-- 0.02 -->
      <g transform="translate(27.734375 31.559375)scale(0.1 -0.1)">
       <use xlink:href="#BitstreamVeraSans-Roman-30"/>
       <use x="63.623046875" xlink:href="#BitstreamVeraSans-Roman-2e"/>
       <use x="95.41015625" xlink:href="#BitstreamVeraSans-Roman-30"/>
       <use x="159.033203125" xlink:href="#BitstreamVeraSans-Roman-32"/>
      </g>
     </g>
    </g>
   </g>
  </g>
 </g>
 <defs>
  <clipPath id="p4e19fb9a42">
   <rect height="223.2" width="334.8" x="54.0" y="28.8"/>
  </clipPath>
 </defs>
</svg>
