<?xml version="1.0" encoding="utf-8" standalone="no"?>
<!DOCTYPE svg PUBLIC "-//W3C//DTD SVG 1.1//EN"
  "http://www.w3.org/Graphics/SVG/1.1/DTD/svg11.dtd">
<!-- Created with matplotlib (http://matplotlib.org/) -->
<svg height="396pt" version="1.1" viewBox="0 0 576 396" width="576pt" xmlns="http://www.w3.org/2000/svg" xmlns:xlink="http://www.w3.org/1999/xlink">
 <defs>
  <style type="text/css">
*{stroke-linecap:butt;stroke-linejoin:round;stroke-miterlimit:100000;}
  </style>
 </defs>
 <g id="figure_1">
  <g id="patch_1">
   <path d="M 0 396 
L 576 396 
L 576 0 
L 0 0 
z
" style="fill:#ffffff;"/>
  </g>
  <g id="patch_2">
   <path d="M 72 346.5 
L 518.4 346.5 
L 518.4 39.6 
L 72 39.6 
z
" style="fill:#ffffff;"/>
  </g>
  <g id="pane3d_1">
   <g id="patch_3">
    <path d="M 131.177218 278.685916 
L 258.939234 203.44099 
L 256.812132 59.660286 
L 121.926546 127.266304 
" style="fill:#f2f2f2;opacity:0.5;stroke:#f2f2f2;stroke-linejoin:miter;stroke-width:0.3;"/>
   </g>
  </g>
  <g id="pane3d_2">
   <g id="patch_4">
    <path d="M 258.939234 203.44099 
L 465.901687 245.507759 
L 474.560748 97.391406 
L 256.812132 59.660286 
" style="fill:#e6e6e6;opacity:0.5;stroke:#e6e6e6;stroke-linejoin:miter;stroke-width:0.3;"/>
   </g>
  </g>
  <g id="pane3d_3">
   <g id="patch_5">
    <path d="M 131.177218 278.685916 
L 348.929684 327.679523 
L 465.901687 245.507759 
L 258.939234 203.44099 
" style="fill:#ececec;opacity:0.5;stroke:#ececec;stroke-linejoin:miter;stroke-width:0.3;"/>
   </g>
  </g>
  <g id="axis3d_1">
   <g id="line2d_1">
    <path d="M 131.177218 278.685916 
L 348.929684 327.679523 
" style="fill:none;stroke:#000000;stroke-linecap:round;stroke-width:0.75;"/>
   </g>
   <g id="text_1">
    <!-- tau_a -->
    <defs>
     <path d="M -1.515625 -19.875 
L -1.515625 -13.53125 
L 56.734375 -13.53125 
L 56.734375 -19.875 
z
" id="LiberationSans-5f"/>
     <path d="M 20.21875 -0.984375 
Q 12.25 -0.984375 8.25 3.21875 
Q 4.25 7.421875 4.25 14.75 
Q 4.25 19.96875 6.21875 23.3125 
Q 8.203125 26.65625 11.390625 28.5625 
Q 14.59375 30.46875 18.6875 31.203125 
Q 22.796875 31.9375 27.046875 32.03125 
L 38.921875 32.234375 
L 38.921875 35.109375 
Q 38.921875 38.375 38.234375 40.671875 
Q 37.546875 42.96875 36.125 44.375 
Q 34.71875 45.796875 32.59375 46.453125 
Q 30.46875 47.125 27.59375 47.125 
Q 25.046875 47.125 23 46.75 
Q 20.953125 46.390625 19.4375 45.4375 
Q 17.921875 44.484375 16.984375 42.84375 
Q 16.0625 41.21875 15.765625 38.71875 
L 6.59375 39.546875 
Q 7.078125 42.671875 8.4375 45.28125 
Q 9.8125 47.90625 12.328125 49.796875 
Q 14.84375 51.703125 18.625 52.75 
Q 22.40625 53.8125 27.78125 53.8125 
Q 37.75 53.8125 42.765625 49.234375 
Q 47.796875 44.671875 47.796875 36.03125 
L 47.796875 13.28125 
Q 47.796875 9.375 48.828125 7.390625 
Q 49.859375 5.421875 52.734375 5.421875 
Q 53.46875 5.421875 54.203125 5.515625 
Q 54.9375 5.609375 55.609375 5.765625 
L 55.609375 0.296875 
Q 53.953125 -0.09375 52.3125 -0.28125 
Q 50.6875 -0.484375 48.828125 -0.484375 
Q 46.34375 -0.484375 44.5625 0.171875 
Q 42.78125 0.828125 41.65625 2.171875 
Q 40.53125 3.515625 39.9375 5.484375 
Q 39.359375 7.46875 39.203125 10.109375 
L 38.921875 10.109375 
Q 37.5 7.5625 35.8125 5.515625 
Q 34.125 3.46875 31.875 2.03125 
Q 29.640625 0.59375 26.78125 -0.1875 
Q 23.921875 -0.984375 20.21875 -0.984375 
M 22.21875 5.609375 
Q 26.421875 5.609375 29.5625 7.140625 
Q 32.71875 8.6875 34.78125 11.078125 
Q 36.859375 13.484375 37.890625 16.3125 
Q 38.921875 19.140625 38.921875 21.734375 
L 38.921875 26.078125 
L 29.296875 25.875 
Q 26.078125 25.828125 23.171875 25.40625 
Q 20.265625 25 18.0625 23.78125 
Q 15.875 22.5625 14.578125 20.359375 
Q 13.28125 18.171875 13.28125 14.59375 
Q 13.28125 10.296875 15.59375 7.953125 
Q 17.921875 5.609375 22.21875 5.609375 
" id="LiberationSans-61"/>
     <path d="M 15.328125 52.828125 
L 15.328125 19.34375 
Q 15.328125 15.484375 15.890625 12.890625 
Q 16.453125 10.296875 17.71875 8.703125 
Q 19 7.125 21.0625 6.46875 
Q 23.140625 5.8125 26.21875 5.8125 
Q 29.34375 5.8125 31.859375 6.90625 
Q 34.375 8.015625 36.15625 10.078125 
Q 37.9375 12.15625 38.90625 15.203125 
Q 39.890625 18.265625 39.890625 22.21875 
L 39.890625 52.828125 
L 48.6875 52.828125 
L 48.6875 11.28125 
Q 48.6875 9.625 48.703125 7.78125 
Q 48.734375 5.953125 48.78125 4.3125 
Q 48.828125 2.6875 48.875 1.515625 
Q 48.921875 0.34375 48.96875 0 
L 40.671875 0 
Q 40.625 0.25 40.578125 1.3125 
Q 40.53125 2.390625 40.453125 3.78125 
Q 40.375 5.171875 40.328125 6.609375 
Q 40.28125 8.0625 40.28125 9.03125 
L 40.140625 9.03125 
Q 38.875 6.734375 37.359375 4.875 
Q 35.84375 3.03125 33.84375 1.734375 
Q 31.84375 0.4375 29.25 -0.265625 
Q 26.65625 -0.984375 23.25 -0.984375 
Q 18.84375 -0.984375 15.671875 0.09375 
Q 12.5 1.171875 10.453125 3.421875 
Q 8.40625 5.671875 7.453125 9.1875 
Q 6.5 12.703125 6.5 17.625 
L 6.5 52.828125 
z
" id="LiberationSans-75"/>
     <path d="M 27.046875 0.390625 
Q 25.046875 -0.140625 22.96875 -0.453125 
Q 20.90625 -0.78125 18.171875 -0.78125 
Q 7.625 -0.78125 7.625 11.1875 
L 7.625 46.4375 
L 1.515625 46.4375 
L 1.515625 52.828125 
L 7.953125 52.828125 
L 10.546875 64.65625 
L 16.40625 64.65625 
L 16.40625 52.828125 
L 26.171875 52.828125 
L 26.171875 46.4375 
L 16.40625 46.4375 
L 16.40625 13.09375 
Q 16.40625 9.28125 17.640625 7.734375 
Q 18.890625 6.203125 21.96875 6.203125 
Q 23.25 6.203125 24.4375 6.390625 
Q 25.640625 6.59375 27.046875 6.890625 
z
" id="LiberationSans-74"/>
    </defs>
    <g style="fill:#262626;" transform="translate(206.355766643 333.026330883)rotate(-347.319791234)scale(0.11 -0.11)">
     <use xlink:href="#LiberationSans-74"/>
     <use x="27.783203125" xlink:href="#LiberationSans-61"/>
     <use x="83.3984375" xlink:href="#LiberationSans-75"/>
     <use x="139.013671875" xlink:href="#LiberationSans-5f"/>
     <use x="194.62890625" xlink:href="#LiberationSans-61"/>
    </g>
   </g>
   <g id="Line3DCollection_1">
    <path d="M 135.341407 279.622845 
L 262.91012 204.248104 
L 260.98105 60.382669 
" style="fill:none;stroke:#e6e6e6;stroke-width:1.75;"/>
    <path d="M 160.483807 285.279804 
L 286.874573 209.11907 
L 286.148026 64.743561 
" style="fill:none;stroke:#e6e6e6;stroke-width:1.75;"/>
    <path d="M 185.898981 290.998137 
L 311.080141 214.039045 
L 311.581097 69.150562 
" style="fill:none;stroke:#e6e6e6;stroke-width:1.75;"/>
    <path d="M 211.591391 296.778847 
L 335.530482 219.008772 
L 337.284506 73.604406 
" style="fill:none;stroke:#e6e6e6;stroke-width:1.75;"/>
    <path d="M 237.565599 302.622961 
L 360.229327 224.029009 
L 363.262586 78.105845 
" style="fill:none;stroke:#e6e6e6;stroke-width:1.75;"/>
    <path d="M 263.826267 308.531527 
L 385.180483 229.100531 
L 389.519764 82.655645 
" style="fill:none;stroke:#e6e6e6;stroke-width:1.75;"/>
    <path d="M 290.378159 314.505618 
L 410.387838 234.224126 
L 416.060561 87.25459 
" style="fill:none;stroke:#e6e6e6;stroke-width:1.75;"/>
    <path d="M 317.226148 320.546329 
L 435.855357 239.400603 
L 442.889598 91.903482 
" style="fill:none;stroke:#e6e6e6;stroke-width:1.75;"/>
    <path d="M 344.375213 326.654782 
L 461.587089 244.630782 
L 470.011596 96.603137 
" style="fill:none;stroke:#e6e6e6;stroke-width:1.75;"/>
   </g>
   <g id="xtick_1">
    <g id="line2d_2">
     <path clip-path="url(#p113f10a113)" d="M 301.232432 188.902703 
" style="fill:none;stroke:#cccccc;stroke-linecap:round;"/>
    </g>
    <g id="line2d_3">
     <path d="M 136.440324 278.973543 
L 133.139482 280.923865 
" style="fill:none;stroke:#262626;stroke-linecap:round;stroke-width:1.75;"/>
    </g>
    <g id="text_2">
     <!-- −20 -->
     <defs>
      <path d="M 4.9375 29.6875 
L 4.9375 36.8125 
L 53.515625 36.8125 
L 53.515625 29.6875 
z
" id="LiberationSans-2212"/>
      <path d="M 5.03125 0 
L 5.03125 6.203125 
Q 7.515625 11.921875 11.109375 16.28125 
Q 14.703125 20.65625 18.65625 24.1875 
Q 22.609375 27.734375 26.484375 30.765625 
Q 30.375 33.796875 33.5 36.8125 
Q 36.625 39.84375 38.546875 43.15625 
Q 40.484375 46.484375 40.484375 50.6875 
Q 40.484375 53.609375 39.59375 55.828125 
Q 38.71875 58.0625 37.0625 59.5625 
Q 35.40625 61.078125 33.078125 61.828125 
Q 30.765625 62.59375 27.9375 62.59375 
Q 25.296875 62.59375 22.96875 61.859375 
Q 20.65625 61.140625 18.84375 59.671875 
Q 17.046875 58.203125 15.890625 56.03125 
Q 14.75 53.859375 14.40625 50.984375 
L 5.421875 51.8125 
Q 5.859375 55.515625 7.46875 58.78125 
Q 9.078125 62.0625 11.90625 64.53125 
Q 14.75 67 18.71875 68.40625 
Q 22.703125 69.828125 27.9375 69.828125 
Q 33.0625 69.828125 37.0625 68.609375 
Q 41.0625 67.390625 43.8125 64.984375 
Q 46.578125 62.59375 48.046875 59.078125 
Q 49.515625 55.5625 49.515625 50.984375 
Q 49.515625 47.515625 48.265625 44.390625 
Q 47.015625 41.265625 44.9375 38.421875 
Q 42.875 35.59375 40.140625 32.953125 
Q 37.40625 30.328125 34.421875 27.8125 
Q 31.453125 25.296875 28.421875 22.828125 
Q 25.390625 20.359375 22.71875 17.859375 
Q 20.0625 15.375 17.96875 12.8125 
Q 15.875 10.25 14.703125 7.46875 
L 50.59375 7.46875 
L 50.59375 0 
z
" id="LiberationSans-32"/>
      <path d="M 51.703125 34.421875 
Q 51.703125 24.515625 49.828125 17.75 
Q 47.953125 10.984375 44.703125 6.8125 
Q 41.453125 2.640625 37.0625 0.828125 
Q 32.671875 -0.984375 27.6875 -0.984375 
Q 22.65625 -0.984375 18.3125 0.828125 
Q 13.96875 2.640625 10.765625 6.78125 
Q 7.5625 10.9375 5.734375 17.703125 
Q 3.90625 24.46875 3.90625 34.421875 
Q 3.90625 44.828125 5.734375 51.640625 
Q 7.5625 58.453125 10.78125 62.5 
Q 14.015625 66.546875 18.40625 68.1875 
Q 22.796875 69.828125 27.984375 69.828125 
Q 32.90625 69.828125 37.21875 68.1875 
Q 41.546875 66.546875 44.765625 62.5 
Q 48 58.453125 49.84375 51.640625 
Q 51.703125 44.828125 51.703125 34.421875 
M 42.78125 34.421875 
Q 42.78125 42.625 41.796875 48.0625 
Q 40.828125 53.515625 38.921875 56.765625 
Q 37.015625 60.015625 34.25 61.359375 
Q 31.5 62.703125 27.984375 62.703125 
Q 24.265625 62.703125 21.4375 61.328125 
Q 18.609375 59.96875 16.671875 56.71875 
Q 14.75 53.46875 13.765625 48.015625 
Q 12.796875 42.578125 12.796875 34.421875 
Q 12.796875 26.515625 13.796875 21.09375 
Q 14.796875 15.671875 16.71875 12.375 
Q 18.65625 9.078125 21.4375 7.640625 
Q 24.21875 6.203125 27.78125 6.203125 
Q 31.25 6.203125 34.03125 7.640625 
Q 36.8125 9.078125 38.734375 12.375 
Q 40.671875 15.671875 41.71875 21.09375 
Q 42.78125 26.515625 42.78125 34.421875 
" id="LiberationSans-30"/>
     </defs>
     <g style="fill:#262626;" transform="translate(116.985770123 304.100445535)scale(0.1 -0.1)">
      <use xlink:href="#LiberationSans-2212"/>
      <use x="58.3984375" xlink:href="#LiberationSans-32"/>
      <use x="114.013671875" xlink:href="#LiberationSans-30"/>
     </g>
    </g>
   </g>
   <g id="xtick_2">
    <g id="line2d_4">
     <path clip-path="url(#p113f10a113)" d="M 301.232432 188.902703 
" style="fill:none;stroke:#cccccc;stroke-linecap:round;"/>
    </g>
    <g id="line2d_5">
     <path d="M 161.572996 284.62348 
L 158.301354 286.59491 
" style="fill:none;stroke:#262626;stroke-linecap:round;stroke-width:1.75;"/>
    </g>
    <g id="text_3">
     <!-- −15 -->
     <defs>
      <path d="M 51.421875 22.40625 
Q 51.421875 17.234375 49.859375 12.9375 
Q 48.296875 8.640625 45.21875 5.53125 
Q 42.140625 2.4375 37.578125 0.71875 
Q 33.015625 -0.984375 27 -0.984375 
Q 21.578125 -0.984375 17.546875 0.28125 
Q 13.53125 1.5625 10.734375 3.78125 
Q 7.953125 6 6.3125 8.984375 
Q 4.6875 11.96875 4 15.375 
L 12.890625 16.40625 
Q 13.421875 14.453125 14.390625 12.625 
Q 15.375 10.796875 17.0625 9.34375 
Q 18.75 7.90625 21.21875 7.046875 
Q 23.6875 6.203125 27.203125 6.203125 
Q 30.609375 6.203125 33.390625 7.25 
Q 36.1875 8.296875 38.15625 10.34375 
Q 40.140625 12.40625 41.203125 15.375 
Q 42.28125 18.359375 42.28125 22.21875 
Q 42.28125 25.390625 41.25 28.046875 
Q 40.234375 30.71875 38.328125 32.640625 
Q 36.421875 34.578125 33.65625 35.640625 
Q 30.90625 36.71875 27.390625 36.71875 
Q 25.203125 36.71875 23.34375 36.328125 
Q 21.484375 35.9375 19.890625 35.25 
Q 18.3125 34.578125 17.015625 33.671875 
Q 15.71875 32.765625 14.59375 31.78125 
L 6 31.78125 
L 8.296875 68.796875 
L 47.40625 68.796875 
L 47.40625 61.328125 
L 16.3125 61.328125 
L 14.984375 39.5 
Q 17.328125 41.3125 20.84375 42.59375 
Q 24.359375 43.890625 29.203125 43.890625 
Q 34.328125 43.890625 38.421875 42.328125 
Q 42.53125 40.765625 45.40625 37.90625 
Q 48.296875 35.0625 49.859375 31.109375 
Q 51.421875 27.15625 51.421875 22.40625 
" id="LiberationSans-35"/>
      <path d="M 7.625 0 
L 7.625 7.46875 
L 25.140625 7.46875 
L 25.140625 60.40625 
L 9.625 49.3125 
L 9.625 57.625 
L 25.875 68.796875 
L 33.984375 68.796875 
L 33.984375 7.46875 
L 50.734375 7.46875 
L 50.734375 0 
z
" id="LiberationSans-31"/>
     </defs>
     <g style="fill:#262626;" transform="translate(142.124792548 309.861805491)scale(0.1 -0.1)">
      <use xlink:href="#LiberationSans-2212"/>
      <use x="58.3984375" xlink:href="#LiberationSans-31"/>
      <use x="114.013671875" xlink:href="#LiberationSans-35"/>
     </g>
    </g>
   </g>
   <g id="xtick_3">
    <g id="line2d_6">
     <path clip-path="url(#p113f10a113)" d="M 301.232432 188.902703 
" style="fill:none;stroke:#cccccc;stroke-linecap:round;"/>
    </g>
    <g id="line2d_7">
     <path d="M 186.978165 290.334675 
L 183.736553 292.327559 
" style="fill:none;stroke:#262626;stroke-linecap:round;stroke-width:1.75;"/>
    </g>
    <g id="text_4">
     <!-- −10 -->
     <g style="fill:#262626;" transform="translate(167.537097039 315.685796219)scale(0.1 -0.1)">
      <use xlink:href="#LiberationSans-2212"/>
      <use x="58.3984375" xlink:href="#LiberationSans-31"/>
      <use x="114.013671875" xlink:href="#LiberationSans-30"/>
     </g>
    </g>
   </g>
   <g id="xtick_4">
    <g id="line2d_8">
     <path clip-path="url(#p113f10a113)" d="M 301.232432 188.902703 
" style="fill:none;stroke:#cccccc;stroke-linecap:round;"/>
    </g>
    <g id="line2d_9">
     <path d="M 212.660287 296.10813 
L 209.449556 298.122819 
" style="fill:none;stroke:#262626;stroke-linecap:round;stroke-width:1.75;"/>
    </g>
    <g id="text_5">
     <!-- −5 -->
     <g style="fill:#262626;" transform="translate(196.007632904 321.573444571)scale(0.1 -0.1)">
      <use xlink:href="#LiberationSans-2212"/>
      <use x="58.3984375" xlink:href="#LiberationSans-35"/>
     </g>
    </g>
   </g>
   <g id="xtick_5">
    <g id="line2d_10">
     <path clip-path="url(#p113f10a113)" d="M 301.232432 188.902703 
" style="fill:none;stroke:#cccccc;stroke-linecap:round;"/>
    </g>
    <g id="line2d_11">
     <path d="M 238.623915 301.944869 
L 235.444941 303.981723 
" style="fill:none;stroke:#262626;stroke-linecap:round;stroke-width:1.75;"/>
    </g>
    <g id="text_6">
     <!-- 0 -->
     <g style="fill:#262626;" transform="translate(224.900354186 327.525799973)scale(0.1 -0.1)">
      <use xlink:href="#LiberationSans-30"/>
     </g>
    </g>
   </g>
   <g id="xtick_6">
    <g id="line2d_12">
     <path clip-path="url(#p113f10a113)" d="M 301.232432 188.902703 
" style="fill:none;stroke:#cccccc;stroke-linecap:round;"/>
    </g>
    <g id="line2d_13">
     <path d="M 264.873705 307.845939 
L 261.727385 309.905326 
" style="fill:none;stroke:#262626;stroke-linecap:round;stroke-width:1.75;"/>
    </g>
    <g id="text_7">
     <!-- 5 -->
     <g style="fill:#262626;" transform="translate(251.159784886 333.543935045)scale(0.1 -0.1)">
      <use xlink:href="#LiberationSans-35"/>
     </g>
    </g>
   </g>
   <g id="xtick_7">
    <g id="line2d_14">
     <path clip-path="url(#p113f10a113)" d="M 301.232432 188.902703 
" style="fill:none;stroke:#cccccc;stroke-linecap:round;"/>
    </g>
    <g id="line2d_15">
     <path d="M 291.414412 313.812408 
L 288.301669 315.894703 
" style="fill:none;stroke:#262626;stroke-linecap:round;stroke-width:1.75;"/>
    </g>
    <g id="text_8">
     <!-- 10 -->
     <g style="fill:#262626;" transform="translate(274.930553023 339.628946244)scale(0.1 -0.1)">
      <use xlink:href="#LiberationSans-31"/>
      <use x="55.615234375" xlink:href="#LiberationSans-30"/>
     </g>
    </g>
   </g>
   <g id="xtick_8">
    <g id="line2d_16">
     <path clip-path="url(#p113f10a113)" d="M 301.232432 188.902703 
" style="fill:none;stroke:#cccccc;stroke-linecap:round;"/>
    </g>
    <g id="line2d_17">
     <path d="M 318.2509 319.84537 
L 315.17268 321.950959 
" style="fill:none;stroke:#262626;stroke-linecap:round;stroke-width:1.75;"/>
    </g>
    <g id="text_9">
     <!-- 15 -->
     <g style="fill:#262626;" transform="translate(301.778487287 345.781954535)scale(0.1 -0.1)">
      <use xlink:href="#LiberationSans-31"/>
      <use x="55.615234375" xlink:href="#LiberationSans-35"/>
     </g>
    </g>
   </g>
   <g id="xtick_9">
    <g id="line2d_18">
     <path clip-path="url(#p113f10a113)" d="M 301.232432 188.902703 
" style="fill:none;stroke:#cccccc;stroke-linecap:round;"/>
    </g>
    <g id="line2d_19">
     <path d="M 345.388141 325.945942 
L 342.345417 328.075217 
" style="fill:none;stroke:#262626;stroke-linecap:round;stroke-width:1.75;"/>
    </g>
    <g id="text_10">
     <!-- 20 -->
     <g style="fill:#262626;" transform="translate(328.928120049 352.004106072)scale(0.1 -0.1)">
      <use xlink:href="#LiberationSans-32"/>
      <use x="55.615234375" xlink:href="#LiberationSans-30"/>
     </g>
    </g>
   </g>
  </g>
  <g id="axis3d_2">
   <g id="line2d_20">
    <path d="M 465.901687 245.507759 
L 348.929684 327.679523 
" style="fill:none;stroke:#000000;stroke-linecap:round;stroke-width:0.75;"/>
   </g>
   <g id="text_11">
    <!-- tau_i -->
    <defs>
     <path d="M 6.6875 64.0625 
L 6.6875 72.46875 
L 15.484375 72.46875 
L 15.484375 64.0625 
z
M 6.6875 0 
L 6.6875 52.828125 
L 15.484375 52.828125 
L 15.484375 0 
z
" id="LiberationSans-69"/>
    </defs>
    <g style="fill:#262626;" transform="translate(430.192649326 319.536487232)rotate(-35.087690932)scale(0.11 -0.11)">
     <use xlink:href="#LiberationSans-74"/>
     <use x="27.783203125" xlink:href="#LiberationSans-61"/>
     <use x="83.3984375" xlink:href="#LiberationSans-75"/>
     <use x="139.013671875" xlink:href="#LiberationSans-5f"/>
     <use x="194.62890625" xlink:href="#LiberationSans-69"/>
    </g>
   </g>
   <g id="Line3DCollection_2">
    <path d="M 124.83963 125.806238 
L 133.925947 277.067063 
L 351.454544 325.905832 
" style="fill:none;stroke:#e6e6e6;stroke-width:1.75;"/>
    <path d="M 142.120716 117.144782 
L 150.241556 267.458051 
L 366.433824 315.383025 
" style="fill:none;stroke:#e6e6e6;stroke-width:1.75;"/>
    <path d="M 159.070412 108.649423 
L 166.260112 258.023986 
L 381.127889 305.060578 
" style="fill:none;stroke:#e6e6e6;stroke-width:1.75;"/>
    <path d="M 175.698161 100.315428 
L 181.989655 248.760135 
L 395.544809 294.932823 
" style="fill:none;stroke:#e6e6e6;stroke-width:1.75;"/>
    <path d="M 192.013047 92.138242 
L 197.437937 239.661931 
L 409.692352 284.994304 
" style="fill:none;stroke:#e6e6e6;stroke-width:1.75;"/>
    <path d="M 208.023819 84.113481 
L 212.612435 230.724972 
L 423.577998 275.239765 
" style="fill:none;stroke:#e6e6e6;stroke-width:1.75;"/>
    <path d="M 223.738902 76.236923 
L 227.520363 221.945008 
L 437.208951 265.664144 
" style="fill:none;stroke:#e6e6e6;stroke-width:1.75;"/>
    <path d="M 239.166411 68.504499 
L 242.168684 213.317938 
L 450.592157 256.262564 
" style="fill:none;stroke:#e6e6e6;stroke-width:1.75;"/>
    <path d="M 254.31417 60.912289 
L 256.564121 204.839803 
L 463.734308 247.030323 
" style="fill:none;stroke:#e6e6e6;stroke-width:1.75;"/>
   </g>
   <g id="xtick_10">
    <g id="line2d_21">
     <path clip-path="url(#p113f10a113)" d="M 301.232432 188.902703 
" style="fill:none;stroke:#cccccc;stroke-linecap:round;"/>
    </g>
    <g id="line2d_22">
     <path d="M 349.633738 325.497031 
L 355.10024 326.724351 
" style="fill:none;stroke:#262626;stroke-linecap:round;stroke-width:1.75;"/>
    </g>
    <g id="text_12">
     <!-- −20 -->
     <g style="fill:#262626;" transform="translate(360.166413205 348.334127009)scale(0.1 -0.1)">
      <use xlink:href="#LiberationSans-2212"/>
      <use x="58.3984375" xlink:href="#LiberationSans-32"/>
      <use x="114.013671875" xlink:href="#LiberationSans-30"/>
     </g>
    </g>
   </g>
   <g id="xtick_11">
    <g id="line2d_23">
     <path clip-path="url(#p113f10a113)" d="M 301.232432 188.902703 
" style="fill:none;stroke:#cccccc;stroke-linecap:round;"/>
    </g>
    <g id="line2d_24">
     <path d="M 364.624972 314.982043 
L 370.055544 316.185879 
" style="fill:none;stroke:#262626;stroke-linecap:round;stroke-width:1.75;"/>
    </g>
    <g id="text_13">
     <!-- −15 -->
     <g style="fill:#262626;" transform="translate(374.972336675 337.6712321)scale(0.1 -0.1)">
      <use xlink:href="#LiberationSans-2212"/>
      <use x="58.3984375" xlink:href="#LiberationSans-31"/>
      <use x="114.013671875" xlink:href="#LiberationSans-35"/>
     </g>
    </g>
   </g>
   <g id="xtick_12">
    <g id="line2d_25">
     <path clip-path="url(#p113f10a113)" d="M 301.232432 188.902703 
" style="fill:none;stroke:#cccccc;stroke-linecap:round;"/>
    </g>
    <g id="line2d_26">
     <path d="M 379.33087 304.667194 
L 384.725881 305.848213 
" style="fill:none;stroke:#262626;stroke-linecap:round;stroke-width:1.75;"/>
    </g>
    <g id="text_14">
     <!-- −10 -->
     <g style="fill:#262626;" transform="translate(389.496499441 327.211254948)scale(0.1 -0.1)">
      <use xlink:href="#LiberationSans-2212"/>
      <use x="58.3984375" xlink:href="#LiberationSans-31"/>
      <use x="114.013671875" xlink:href="#LiberationSans-30"/>
     </g>
    </g>
   </g>
   <g id="xtick_13">
    <g id="line2d_27">
     <path clip-path="url(#p113f10a113)" d="M 301.232432 188.902703 
" style="fill:none;stroke:#cccccc;stroke-linecap:round;"/>
    </g>
    <g id="line2d_28">
     <path d="M 393.7595 294.546822 
L 399.119319 295.705667 
" style="fill:none;stroke:#262626;stroke-linecap:round;stroke-width:1.75;"/>
    </g>
    <g id="text_15">
     <!-- −5 -->
     <g style="fill:#262626;" transform="translate(406.527337418 316.948457779)scale(0.1 -0.1)">
      <use xlink:href="#LiberationSans-2212"/>
      <use x="58.3984375" xlink:href="#LiberationSans-35"/>
     </g>
    </g>
   </g>
   <g id="xtick_14">
    <g id="line2d_29">
     <path clip-path="url(#p113f10a113)" d="M 301.232432 188.902703 
" style="fill:none;stroke:#cccccc;stroke-linecap:round;"/>
    </g>
    <g id="line2d_30">
     <path d="M 407.91863 284.61548 
L 413.243626 285.752769 
" style="fill:none;stroke:#262626;stroke-linecap:round;stroke-width:1.75;"/>
    </g>
    <g id="text_16">
     <!-- 0 -->
     <g style="fill:#262626;" transform="translate(423.431895198 306.877317124)scale(0.1 -0.1)">
      <use xlink:href="#LiberationSans-30"/>
     </g>
    </g>
   </g>
   <g id="xtick_15">
    <g id="line2d_31">
     <path clip-path="url(#p113f10a113)" d="M 301.232432 188.902703 
" style="fill:none;stroke:#cccccc;stroke-linecap:round;"/>
    </g>
    <g id="line2d_32">
     <path d="M 421.815742 274.86792 
L 427.106278 275.984249 
" style="fill:none;stroke:#262626;stroke-linecap:round;stroke-width:1.75;"/>
    </g>
    <g id="text_17">
     <!-- 5 -->
     <g style="fill:#262626;" transform="translate(437.157402316 296.992513905)scale(0.1 -0.1)">
      <use xlink:href="#LiberationSans-35"/>
     </g>
    </g>
   </g>
   <g id="xtick_16">
    <g id="line2d_33">
     <path clip-path="url(#p113f10a113)" d="M 301.232432 188.902703 
" style="fill:none;stroke:#cccccc;stroke-linecap:round;"/>
    </g>
    <g id="line2d_34">
     <path d="M 435.458042 265.299087 
L 440.714481 266.395031 
" style="fill:none;stroke:#262626;stroke-linecap:round;stroke-width:1.75;"/>
    </g>
    <g id="text_18">
     <!-- 10 -->
     <g style="fill:#262626;" transform="translate(447.850817508 287.28892407)scale(0.1 -0.1)">
      <use xlink:href="#LiberationSans-31"/>
      <use x="55.615234375" xlink:href="#LiberationSans-30"/>
     </g>
    </g>
   </g>
   <g id="xtick_17">
    <g id="line2d_35">
     <path clip-path="url(#p113f10a113)" d="M 301.232432 188.902703 
" style="fill:none;stroke:#cccccc;stroke-linecap:round;"/>
    </g>
    <g id="line2d_36">
     <path d="M 448.852474 255.904111 
L 454.075176 256.980223 
" style="fill:none;stroke:#262626;stroke-linecap:round;stroke-width:1.75;"/>
    </g>
    <g id="text_19">
     <!-- 15 -->
     <g style="fill:#262626;" transform="translate(461.079934757 277.761609733)scale(0.1 -0.1)">
      <use xlink:href="#LiberationSans-31"/>
      <use x="55.615234375" xlink:href="#LiberationSans-35"/>
     </g>
    </g>
   </g>
   <g id="xtick_18">
    <g id="line2d_37">
     <path clip-path="url(#p113f10a113)" d="M 301.232432 188.902703 
" style="fill:none;stroke:#cccccc;stroke-linecap:round;"/>
    </g>
    <g id="line2d_38">
     <path d="M 462.005733 246.678296 
L 467.195055 247.73511 
" style="fill:none;stroke:#262626;stroke-linecap:round;stroke-width:1.75;"/>
    </g>
    <g id="text_20">
     <!-- 20 -->
     <g style="fill:#262626;" transform="translate(474.070894927 268.405810796)scale(0.1 -0.1)">
      <use xlink:href="#LiberationSans-32"/>
      <use x="55.615234375" xlink:href="#LiberationSans-30"/>
     </g>
    </g>
   </g>
  </g>
  <g id="axis3d_3">
   <g id="line2d_39">
    <path d="M 465.901687 245.507759 
L 474.560748 97.391406 
" style="fill:none;stroke:#000000;stroke-linecap:round;stroke-width:0.75;"/>
   </g>
   <g id="Line3DCollection_3">
    <path d="M 466.066381 242.690608 
L 258.89869 200.700452 
L 131.001569 275.810796 
" style="fill:none;stroke:#e6e6e6;stroke-width:1.75;"/>
    <path d="M 467.204648 223.220148 
L 258.618568 181.765712 
L 129.78727 255.934551 
" style="fill:none;stroke:#e6e6e6;stroke-width:1.75;"/>
    <path d="M 468.358745 203.478909 
L 258.334714 162.57872 
L 128.555523 235.772703 
" style="fill:none;stroke:#e6e6e6;stroke-width:1.75;"/>
    <path d="M 469.529004 183.461205 
L 258.047054 143.134403 
L 127.305949 215.319054 
" style="fill:none;stroke:#e6e6e6;stroke-width:1.75;"/>
    <path d="M 470.715767 163.161187 
L 257.755509 123.427549 
L 126.038158 194.567222 
" style="fill:none;stroke:#e6e6e6;stroke-width:1.75;"/>
    <path d="M 471.919387 142.572839 
L 257.460001 103.452804 
L 124.75175 173.510639 
" style="fill:none;stroke:#e6e6e6;stroke-width:1.75;"/>
    <path d="M 473.140224 121.689975 
L 257.160449 83.204669 
L 123.446309 152.142541 
" style="fill:none;stroke:#e6e6e6;stroke-width:1.75;"/>
    <path d="M 474.378652 100.50623 
L 256.856768 62.677491 
L 122.121412 130.455965 
" style="fill:none;stroke:#e6e6e6;stroke-width:1.75;"/>
   </g>
   <g id="xtick_19">
    <g id="line2d_40">
     <path d="M 301.232432 188.902703 
" style="fill:none;stroke:#cccccc;stroke-linecap:round;"/>
    </g>
    <g id="line2d_41">
     <path d="M 464.337863 242.34026 
L 469.527014 243.392032 
" style="fill:none;stroke:#262626;stroke-linecap:round;stroke-width:1.75;"/>
    </g>
    <g id="text_21">
     <!-- −0.2 -->
     <defs>
      <path d="M 9.125 0 
L 9.125 10.6875 
L 18.65625 10.6875 
L 18.65625 0 
z
" id="LiberationSans-2e"/>
     </defs>
     <g style="fill:#262626;" transform="translate(480.944072333 247.491214194)scale(0.1 -0.1)">
      <use xlink:href="#LiberationSans-2212"/>
      <use x="58.3984375" xlink:href="#LiberationSans-30"/>
      <use x="114.013671875" xlink:href="#LiberationSans-2e"/>
      <use x="141.796875" xlink:href="#LiberationSans-32"/>
     </g>
    </g>
   </g>
   <g id="xtick_20">
    <g id="line2d_42">
     <path d="M 301.232432 188.902703 
" style="fill:none;stroke:#cccccc;stroke-linecap:round;"/>
    </g>
    <g id="line2d_43">
     <path d="M 465.4638 222.874171 
L 470.689989 223.912825 
" style="fill:none;stroke:#262626;stroke-linecap:round;stroke-width:1.75;"/>
    </g>
    <g id="text_22">
     <!-- 0.0 -->
     <g style="fill:#262626;" transform="translate(485.170361937 228.05131201)scale(0.1 -0.1)">
      <use xlink:href="#LiberationSans-30"/>
      <use x="55.615234375" xlink:href="#LiberationSans-2e"/>
      <use x="83.3984375" xlink:href="#LiberationSans-30"/>
     </g>
    </g>
   </g>
   <g id="xtick_21">
    <g id="line2d_44">
     <path d="M 301.232432 188.902703 
" style="fill:none;stroke:#cccccc;stroke-linecap:round;"/>
    </g>
    <g id="line2d_45">
     <path d="M 466.605391 203.13746 
L 471.86915 204.162528 
" style="fill:none;stroke:#262626;stroke-linecap:round;stroke-width:1.75;"/>
    </g>
    <g id="text_23">
     <!-- 0.2 -->
     <g style="fill:#262626;" transform="translate(486.494456872 208.341719897)scale(0.1 -0.1)">
      <use xlink:href="#LiberationSans-30"/>
      <use x="55.615234375" xlink:href="#LiberationSans-2e"/>
      <use x="83.3984375" xlink:href="#LiberationSans-32"/>
     </g>
    </g>
   </g>
   <g id="xtick_22">
    <g id="line2d_46">
     <path d="M 301.232432 188.902703 
" style="fill:none;stroke:#cccccc;stroke-linecap:round;"/>
    </g>
    <g id="line2d_47">
     <path d="M 467.762963 183.124445 
L 473.064836 184.135442 
" style="fill:none;stroke:#262626;stroke-linecap:round;stroke-width:1.75;"/>
    </g>
    <g id="text_24">
     <!-- 0.4 -->
     <defs>
      <path d="M 43.015625 15.578125 
L 43.015625 0 
L 34.71875 0 
L 34.71875 15.578125 
L 2.296875 15.578125 
L 2.296875 22.40625 
L 33.796875 68.796875 
L 43.015625 68.796875 
L 43.015625 22.515625 
L 52.6875 22.515625 
L 52.6875 15.578125 
z
M 34.71875 58.890625 
Q 34.625 58.640625 34.234375 57.9375 
Q 33.84375 57.234375 33.34375 56.34375 
Q 32.859375 55.46875 32.34375 54.5625 
Q 31.84375 53.65625 31.453125 53.078125 
L 13.8125 27.09375 
Q 13.578125 26.703125 13.109375 26.0625 
Q 12.640625 25.4375 12.15625 24.78125 
Q 11.671875 24.125 11.171875 23.484375 
Q 10.6875 22.859375 10.40625 22.515625 
L 34.71875 22.515625 
z
" id="LiberationSans-34"/>
     </defs>
     <g style="fill:#262626;" transform="translate(487.837049296 188.356786539)scale(0.1 -0.1)">
      <use xlink:href="#LiberationSans-30"/>
      <use x="55.615234375" xlink:href="#LiberationSans-2e"/>
      <use x="83.3984375" xlink:href="#LiberationSans-34"/>
     </g>
    </g>
   </g>
   <g id="xtick_23">
    <g id="line2d_48">
     <path d="M 301.232432 188.902703 
" style="fill:none;stroke:#cccccc;stroke-linecap:round;"/>
    </g>
    <g id="line2d_49">
     <path d="M 468.936855 162.829282 
L 474.277397 163.825708 
" style="fill:none;stroke:#262626;stroke-linecap:round;stroke-width:1.75;"/>
    </g>
    <g id="text_25">
     <!-- 0.6 -->
     <defs>
      <path d="M 51.21875 22.515625 
Q 51.21875 17.328125 49.78125 13 
Q 48.34375 8.6875 45.53125 5.578125 
Q 42.71875 2.484375 38.5625 0.75 
Q 34.421875 -0.984375 29 -0.984375 
Q 23 -0.984375 18.5 1.3125 
Q 14.015625 3.609375 11.03125 7.921875 
Q 8.0625 12.25 6.5625 18.53125 
Q 5.078125 24.8125 5.078125 32.8125 
Q 5.078125 42 6.765625 48.921875 
Q 8.453125 55.859375 11.625 60.5 
Q 14.796875 65.140625 19.359375 67.484375 
Q 23.921875 69.828125 29.6875 69.828125 
Q 33.203125 69.828125 36.28125 69.09375 
Q 39.359375 68.359375 41.875 66.71875 
Q 44.390625 65.09375 46.28125 62.40625 
Q 48.1875 59.71875 49.3125 55.8125 
L 40.921875 54.296875 
Q 39.546875 58.734375 36.546875 60.71875 
Q 33.546875 62.703125 29.59375 62.703125 
Q 25.984375 62.703125 23.046875 60.984375 
Q 20.125 59.28125 18.0625 55.875 
Q 16.015625 52.484375 14.90625 47.359375 
Q 13.8125 42.234375 13.8125 35.40625 
Q 16.21875 39.84375 20.5625 42.15625 
Q 24.90625 44.484375 30.515625 44.484375 
Q 35.203125 44.484375 39.015625 42.96875 
Q 42.828125 41.453125 45.53125 38.59375 
Q 48.25 35.75 49.734375 31.671875 
Q 51.21875 27.59375 51.21875 22.515625 
M 42.28125 22.125 
Q 42.28125 25.6875 41.40625 28.5625 
Q 40.53125 31.453125 38.765625 33.46875 
Q 37.015625 35.5 34.421875 36.59375 
Q 31.84375 37.703125 28.421875 37.703125 
Q 26.03125 37.703125 23.578125 36.984375 
Q 21.140625 36.28125 19.15625 34.6875 
Q 17.1875 33.109375 15.9375 30.515625 
Q 14.703125 27.9375 14.703125 24.21875 
Q 14.703125 20.40625 15.671875 17.109375 
Q 16.65625 13.8125 18.484375 11.375 
Q 20.3125 8.9375 22.890625 7.515625 
Q 25.484375 6.109375 28.71875 6.109375 
Q 31.890625 6.109375 34.40625 7.203125 
Q 36.921875 8.296875 38.671875 10.375 
Q 40.4375 12.453125 41.359375 15.421875 
Q 42.28125 18.40625 42.28125 22.125 
" id="LiberationSans-36"/>
     </defs>
     <g style="fill:#262626;" transform="translate(489.198529547 168.090701613)scale(0.1 -0.1)">
      <use xlink:href="#LiberationSans-30"/>
      <use x="55.615234375" xlink:href="#LiberationSans-2e"/>
      <use x="83.3984375" xlink:href="#LiberationSans-36"/>
     </g>
    </g>
   </g>
   <g id="xtick_24">
    <g id="line2d_50">
     <path d="M 301.232432 188.902703 
" style="fill:none;stroke:#cccccc;stroke-linecap:round;"/>
    </g>
    <g id="line2d_51">
     <path d="M 470.127414 142.245961 
L 475.507192 143.227299 
" style="fill:none;stroke:#262626;stroke-linecap:round;stroke-width:1.75;"/>
    </g>
    <g id="text_26">
     <!-- 0.8 -->
     <defs>
      <path d="M 51.265625 19.1875 
Q 51.265625 14.796875 49.875 11.109375 
Q 48.484375 7.421875 45.625 4.734375 
Q 42.78125 2.046875 38.328125 0.53125 
Q 33.890625 -0.984375 27.828125 -0.984375 
Q 21.78125 -0.984375 17.359375 0.53125 
Q 12.9375 2.046875 10.03125 4.703125 
Q 7.125 7.375 5.734375 11.0625 
Q 4.34375 14.75 4.34375 19.09375 
Q 4.34375 22.859375 5.484375 25.78125 
Q 6.640625 28.71875 8.5625 30.828125 
Q 10.5 32.953125 12.96875 34.25 
Q 15.4375 35.546875 18.0625 35.984375 
L 18.0625 36.1875 
Q 15.1875 36.859375 12.90625 38.375 
Q 10.640625 39.890625 9.09375 42.015625 
Q 7.5625 44.140625 6.75 46.71875 
Q 5.953125 49.3125 5.953125 52.203125 
Q 5.953125 55.8125 7.34375 59 
Q 8.734375 62.203125 11.46875 64.625 
Q 14.203125 67.046875 18.25 68.4375 
Q 22.3125 69.828125 27.640625 69.828125 
Q 33.25 69.828125 37.375 68.40625 
Q 41.5 67 44.203125 64.578125 
Q 46.921875 62.15625 48.234375 58.9375 
Q 49.5625 55.71875 49.5625 52.09375 
Q 49.5625 49.265625 48.75 46.671875 
Q 47.953125 44.09375 46.40625 41.96875 
Q 44.875 39.84375 42.59375 38.34375 
Q 40.328125 36.859375 37.359375 36.28125 
L 37.359375 36.078125 
Q 40.328125 35.59375 42.859375 34.296875 
Q 45.40625 33.015625 47.265625 30.890625 
Q 49.125 28.765625 50.1875 25.828125 
Q 51.265625 22.90625 51.265625 19.1875 
M 40.4375 51.609375 
Q 40.4375 54.203125 39.765625 56.34375 
Q 39.109375 58.5 37.59375 60.03125 
Q 36.078125 61.578125 33.640625 62.421875 
Q 31.203125 63.28125 27.640625 63.28125 
Q 24.171875 63.28125 21.78125 62.421875 
Q 19.390625 61.578125 17.84375 60.03125 
Q 16.3125 58.5 15.625 56.34375 
Q 14.9375 54.203125 14.9375 51.609375 
Q 14.9375 49.5625 15.46875 47.40625 
Q 16.015625 45.265625 17.421875 43.5 
Q 18.84375 41.75 21.328125 40.625 
Q 23.828125 39.5 27.734375 39.5 
Q 31.890625 39.5 34.40625 40.625 
Q 36.921875 41.75 38.25 43.5 
Q 39.59375 45.265625 40.015625 47.40625 
Q 40.4375 49.5625 40.4375 51.609375 
M 42.140625 20.015625 
Q 42.140625 22.515625 41.453125 24.828125 
Q 40.765625 27.15625 39.109375 28.9375 
Q 37.453125 30.71875 34.640625 31.8125 
Q 31.84375 32.90625 27.640625 32.90625 
Q 23.78125 32.90625 21.0625 31.8125 
Q 18.359375 30.71875 16.671875 28.90625 
Q 14.984375 27.09375 14.203125 24.71875 
Q 13.421875 22.359375 13.421875 19.828125 
Q 13.421875 16.65625 14.203125 14.03125 
Q 14.984375 11.421875 16.6875 9.546875 
Q 18.40625 7.671875 21.1875 6.640625 
Q 23.96875 5.609375 27.9375 5.609375 
Q 31.9375 5.609375 34.671875 6.640625 
Q 37.40625 7.671875 39.0625 9.546875 
Q 40.71875 11.421875 41.421875 14.078125 
Q 42.140625 16.75 42.140625 20.015625 
" id="LiberationSans-38"/>
     </defs>
     <g style="fill:#262626;" transform="translate(490.579299024 147.537490154)scale(0.1 -0.1)">
      <use xlink:href="#LiberationSans-30"/>
      <use x="55.615234375" xlink:href="#LiberationSans-2e"/>
      <use x="83.3984375" xlink:href="#LiberationSans-38"/>
     </g>
    </g>
   </g>
   <g id="xtick_25">
    <g id="line2d_52">
     <path d="M 301.232432 188.902703 
" style="fill:none;stroke:#cccccc;stroke-linecap:round;"/>
    </g>
    <g id="line2d_53">
     <path d="M 471.334998 121.368303 
L 476.754593 122.334017 
" style="fill:none;stroke:#262626;stroke-linecap:round;stroke-width:1.75;"/>
    </g>
    <g id="text_27">
     <!-- 1.0 -->
     <g style="fill:#262626;" transform="translate(491.979770582 126.691006688)scale(0.1 -0.1)">
      <use xlink:href="#LiberationSans-31"/>
      <use x="55.615234375" xlink:href="#LiberationSans-2e"/>
      <use x="83.3984375" xlink:href="#LiberationSans-30"/>
     </g>
    </g>
   </g>
   <g id="xtick_26">
    <g id="line2d_54">
     <path d="M 301.232432 188.902703 
" style="fill:none;stroke:#cccccc;stroke-linecap:round;"/>
    </g>
    <g id="line2d_55">
     <path d="M 472.559975 100.189948 
L 478.01998 101.139485 
" style="fill:none;stroke:#262626;stroke-linecap:round;stroke-width:1.75;"/>
    </g>
    <g id="text_28">
     <!-- 1.2 -->
     <g style="fill:#262626;" transform="translate(493.400368943 105.5449291)scale(0.1 -0.1)">
      <use xlink:href="#LiberationSans-31"/>
      <use x="55.615234375" xlink:href="#LiberationSans-2e"/>
      <use x="83.3984375" xlink:href="#LiberationSans-32"/>
     </g>
    </g>
   </g>
  </g>
  <g id="axes_1">
   <g id="Path3DCollection_1"/>
   <g id="Path3DCollection_2"/>
   <g id="Path3DCollection_3"/>
   <g id="Path3DCollection_4">
    <defs>
     <path d="M 0 2.236068 
C 0.593012 2.236068 1.161816 2.000462 1.581139 1.581139 
C 2.000462 1.161816 2.236068 0.593012 2.236068 0 
C 2.236068 -0.593012 2.000462 -1.161816 1.581139 -1.581139 
C 1.161816 -2.000462 0.593012 -2.236068 0 -2.236068 
C -0.593012 -2.236068 -1.161816 -2.000462 -1.581139 -1.581139 
C -2.000462 -1.161816 -2.236068 -0.593012 -2.236068 0 
C -2.236068 0.593012 -2.000462 1.161816 -1.581139 1.581139 
C -1.161816 2.000462 -0.593012 2.236068 0 2.236068 
z
" id="m8d5904a68f" style="stroke:#ff0000;stroke-width:0.3;"/>
    </defs>
    <g clip-path="url(#p113f10a113)">
     <use style="fill:#ff0000;stroke:#ff0000;stroke-width:0.3;" x="-6212.38774377" xlink:href="#m8d5904a68f" y="-1120.53867227"/>
    </g>
   </g>
   <g id="Path3DCollection_5">
    <g clip-path="url(#p113f10a113)">
     <use style="fill:#ff0000;stroke:#ff0000;stroke-width:0.3;" x="1876.05054625" xlink:href="#m8d5904a68f" y="-747.655238065"/>
    </g>
   </g>
   <g id="Path3DCollection_6">
    <g clip-path="url(#p113f10a113)">
     <use style="fill:#ff0000;stroke:#ff0000;stroke-width:0.3;" x="345.228784423" xlink:href="#m8d5904a68f" y="233.395569996"/>
    </g>
   </g>
   <g id="Path3DCollection_7">
    <g clip-path="url(#p113f10a113)">
     <use style="fill:#ff0000;stroke:#ff0000;stroke-width:0.3;" x="311.818392621" xlink:href="#m8d5904a68f" y="238.285668511"/>
    </g>
   </g>
   <g id="Path3DCollection_8"/>
   <g id="Path3DCollection_9"/>
   <g id="Path3DCollection_10">
    <g clip-path="url(#p113f10a113)">
     <use style="fill:#ff0000;stroke:#ff0000;stroke-width:0.3;" x="1824.07094674" xlink:href="#m8d5904a68f" y="-715.301666466"/>
    </g>
   </g>
   <g id="Path3DCollection_11">
    <g clip-path="url(#p113f10a113)">
     <use style="fill:#ff0000;stroke:#ff0000;stroke-width:0.3;" x="1821.9043218" xlink:href="#m8d5904a68f" y="-361.073513678"/>
    </g>
   </g>
   <g id="Path3DCollection_12">
    <g clip-path="url(#p113f10a113)">
     <use style="fill:#ff0000;stroke:#ff0000;stroke-width:0.3;" x="464.617975145" xlink:href="#m8d5904a68f" y="205.245557236"/>
    </g>
   </g>
   <g id="Path3DCollection_13">
    <g clip-path="url(#p113f10a113)">
     <use style="fill:#ff0000;stroke:#ff0000;stroke-width:0.3;" x="311.259997921" xlink:href="#m8d5904a68f" y="237.957559612"/>
    </g>
   </g>
   <g id="Path3DCollection_14">
    <g clip-path="url(#p113f10a113)">
     <use style="fill:#ff0000;stroke:#ff0000;stroke-width:0.3;" x="307.955954657" xlink:href="#m8d5904a68f" y="238.661442459"/>
    </g>
   </g>
   <g id="Path3DCollection_15">
    <g clip-path="url(#p113f10a113)">
     <use style="fill:#ff0000;stroke:#ff0000;stroke-width:0.3;" x="305.748648152" xlink:href="#m8d5904a68f" y="238.872579727"/>
    </g>
   </g>
   <g id="Path3DCollection_16">
    <g clip-path="url(#p113f10a113)">
     <use style="fill:#ff0000;stroke:#ff0000;stroke-width:0.3;" x="307.690087863" xlink:href="#m8d5904a68f" y="237.480918193"/>
    </g>
   </g>
   <g id="Path3DCollection_17">
    <defs>
     <path d="M 0 2.236068 
C 0.593012 2.236068 1.161816 2.000462 1.581139 1.581139 
C 2.000462 1.161816 2.236068 0.593012 2.236068 0 
C 2.236068 -0.593012 2.000462 -1.161816 1.581139 -1.581139 
C 1.161816 -2.000462 0.593012 -2.236068 0 -2.236068 
C -0.593012 -2.236068 -1.161816 -2.000462 -1.581139 -1.581139 
C -2.000462 -1.161816 -2.236068 -0.593012 -2.236068 0 
C -2.236068 0.593012 -2.000462 1.161816 -1.581139 1.581139 
C -1.161816 2.000462 -0.593012 2.236068 0 2.236068 
z
" id="m9ffe088505" style="stroke:#0000ff;stroke-width:0.3;"/>
    </defs>
    <g clip-path="url(#p113f10a113)">
     <use style="fill:#0000ff;stroke:#0000ff;stroke-width:0.3;" x="312.677754165" xlink:href="#m9ffe088505" y="217.311206037"/>
    </g>
   </g>
   <g id="Path3DCollection_18">
    <g clip-path="url(#p113f10a113)">
     <use style="fill:#ff0000;stroke:#ff0000;stroke-width:0.3;" x="333.817679591" xlink:href="#m8d5904a68f" y="194.507975366"/>
    </g>
   </g>
   <g id="Path3DCollection_19">
    <g clip-path="url(#p113f10a113)">
     <use style="fill:#0000ff;stroke:#0000ff;stroke-width:0.3;" x="351.146087554" xlink:href="#m9ffe088505" y="180.992848625"/>
    </g>
   </g>
   <g id="Path3DCollection_20">
    <g clip-path="url(#p113f10a113)">
     <use style="fill:#0000ff;stroke:#0000ff;stroke-width:0.3;" x="1042.59422574" xlink:href="#m9ffe088505" y="282.129773877"/>
    </g>
   </g>
   <g id="Path3DCollection_21">
    <g clip-path="url(#p113f10a113)">
     <use style="fill:#0000ff;stroke:#0000ff;stroke-width:0.3;" x="1109.58817564" xlink:href="#m9ffe088505" y="161.989470925"/>
    </g>
   </g>
   <g id="Path3DCollection_22"/>
   <g id="Path3DCollection_23"/>
   <g id="Path3DCollection_24"/>
   <g id="Path3DCollection_25"/>
   <g id="Path3DCollection_26"/>
   <g id="Path3DCollection_27"/>
   <g id="Path3DCollection_28">
    <g clip-path="url(#p113f10a113)">
     <use style="fill:#ff0000;stroke:#ff0000;stroke-width:0.3;" x="311.656926425" xlink:href="#m8d5904a68f" y="234.337855117"/>
    </g>
   </g>
   <g id="Path3DCollection_29">
    <g clip-path="url(#p113f10a113)">
     <use style="fill:#ff0000;stroke:#ff0000;stroke-width:0.3;" x="318.100280134" xlink:href="#m8d5904a68f" y="230.787647558"/>
    </g>
   </g>
   <g id="Path3DCollection_30">
    <g clip-path="url(#p113f10a113)">
     <use style="fill:#ff0000;stroke:#ff0000;stroke-width:0.3;" x="307.373644916" xlink:href="#m8d5904a68f" y="234.152938026"/>
    </g>
   </g>
   <g id="Path3DCollection_31">
    <g clip-path="url(#p113f10a113)">
     <use style="fill:#0000ff;stroke:#0000ff;stroke-width:0.3;" x="323.793208338" xlink:href="#m9ffe088505" y="229.003695992"/>
    </g>
   </g>
   <g id="Path3DCollection_32">
    <g clip-path="url(#p113f10a113)">
     <use style="fill:#ff0000;stroke:#ff0000;stroke-width:0.3;" x="304.088006689" xlink:href="#m8d5904a68f" y="234.007548532"/>
    </g>
   </g>
   <g id="Path3DCollection_33">
    <g clip-path="url(#p113f10a113)">
     <use style="fill:#ff0000;stroke:#ff0000;stroke-width:0.3;" x="306.244688877" xlink:href="#m8d5904a68f" y="230.869736745"/>
    </g>
   </g>
   <g id="Path3DCollection_34">
    <g clip-path="url(#p113f10a113)">
     <use style="fill:#ff0000;stroke:#ff0000;stroke-width:0.3;" x="319.525236974" xlink:href="#m8d5904a68f" y="225.043125605"/>
    </g>
   </g>
   <g id="Path3DCollection_35">
    <g clip-path="url(#p113f10a113)">
     <use style="fill:#0000ff;stroke:#0000ff;stroke-width:0.3;" x="319.229832525" xlink:href="#m9ffe088505" y="222.796447237"/>
    </g>
   </g>
   <g id="Path3DCollection_36">
    <g clip-path="url(#p113f10a113)">
     <use style="fill:#0000ff;stroke:#0000ff;stroke-width:0.3;" x="313.228338093" xlink:href="#m9ffe088505" y="230.531933231"/>
    </g>
   </g>
   <g id="Path3DCollection_37">
    <g clip-path="url(#p113f10a113)">
     <use style="fill:#0000ff;stroke:#0000ff;stroke-width:0.3;" x="311.459979787" xlink:href="#m9ffe088505" y="223.465316561"/>
    </g>
   </g>
   <g id="Path3DCollection_38">
    <g clip-path="url(#p113f10a113)">
     <use style="fill:#0000ff;stroke:#0000ff;stroke-width:0.3;" x="304.512359914" xlink:href="#m9ffe088505" y="221.899397165"/>
    </g>
   </g>
   <g id="Path3DCollection_39">
    <g clip-path="url(#p113f10a113)">
     <use style="fill:#0000ff;stroke:#0000ff;stroke-width:0.3;" x="313.453452157" xlink:href="#m9ffe088505" y="215.060055774"/>
    </g>
   </g>
   <g id="Path3DCollection_40">
    <g clip-path="url(#p113f10a113)">
     <use style="fill:#0000ff;stroke:#0000ff;stroke-width:0.3;" x="318.96280979" xlink:href="#m9ffe088505" y="204.355166795"/>
    </g>
   </g>
   <g id="Path3DCollection_41">
    <g clip-path="url(#p113f10a113)">
     <use style="fill:#ff0000;stroke:#ff0000;stroke-width:0.3;" x="304.926229883" xlink:href="#m8d5904a68f" y="195.341577515"/>
    </g>
   </g>
   <g id="Path3DCollection_42">
    <g clip-path="url(#p113f10a113)">
     <use style="fill:#0000ff;stroke:#0000ff;stroke-width:0.3;" x="385.028788406" xlink:href="#m9ffe088505" y="138.025811441"/>
    </g>
   </g>
   <g id="Path3DCollection_43">
    <g clip-path="url(#p113f10a113)">
     <use style="fill:#ff0000;stroke:#ff0000;stroke-width:0.3;" x="1620.43191994" xlink:href="#m8d5904a68f" y="503.758117371"/>
    </g>
   </g>
   <g id="Path3DCollection_44">
    <g clip-path="url(#p113f10a113)">
     <use style="fill:#0000ff;stroke:#0000ff;stroke-width:0.3;" x="5205.62271341" xlink:href="#m9ffe088505" y="1254.84619159"/>
    </g>
   </g>
  </g>
 </g>
 <defs>
  <clipPath id="p113f10a113">
   <rect height="306.9" width="446.4" x="72.0" y="39.6"/>
  </clipPath>
 </defs>
</svg>
